<?xml version="1.0" encoding="UTF-8" standalone="no"?>
<svg width="46px" height="46px" viewBox="0 0 46 46" version="1.1" xmlns="http://www.w3.org/2000/svg" xmlns:xlink="http://www.w3.org/1999/xlink" xmlns:sketch="http://www.bohemiancoding.com/sketch/ns">
    <!-- Generator: Sketch 3.3.2 (12043) - http://www.bohemiancoding.com/sketch -->
    <title>icon-calendar</title>
    <desc>Created with Sketch.</desc>
    <defs></defs>
    <g id="Page-1" stroke="none" stroke-width="1" fill="none" fill-rule="evenodd" sketch:type="MSPage">
        <path d="M16.463199,27.5522341 L9.88642718,27.5522341 L9.88642718,20.8403922 L16.463199,20.8403922 L16.463199,27.5522341 L16.463199,27.5522341 Z M26.3999806,20.8403922 L19.8233204,20.8403922 L19.8233204,27.5522341 L26.3999806,27.5522341 L26.3999806,20.8403922 L26.3999806,20.8403922 Z M36.3368738,20.8403922 L29.7601019,20.8403922 L29.7601019,27.5522341 L36.3368738,27.5522341 L36.3368738,20.8403922 L36.3368738,20.8403922 Z M16.463199,30.6396996 L9.88642718,30.6396996 L9.88642718,37.3517694 L16.463199,37.3517694 L16.463199,30.6396996 L16.463199,30.6396996 Z M26.3999806,30.6396996 L19.8233204,30.6396996 L19.8233204,37.3517694 L26.3999806,37.3517694 L26.3999806,30.6396996 L26.3999806,30.6396996 Z M36.3367621,30.6396996 L29.7601019,30.6396996 L29.7601019,37.3517694 L36.3367621,37.3517694 L36.3367621,30.6396996 L36.3367621,30.6396996 Z M38.7861505,7.29045682 C38.7861505,8.43389926 37.8778738,9.36095932 36.7574612,9.36095932 C35.6370485,9.36095932 34.7286602,8.43389926 34.7286602,7.29045682 L34.7286602,2.07984603 C34.7286602,0.93651753 35.6370485,0.0094574711 36.7574612,0.0094574711 C37.8778738,0.0094574711 38.7861505,0.93651753 38.7861505,2.07984603 L38.7861505,7.29045682 L38.7861505,7.29045682 Z M11.3759563,2.0705025 C11.3759563,0.927060059 10.467568,8.8817842e-16 9.34726699,8.8817842e-16 C8.22674272,8.8817842e-16 7.31846602,0.927060059 7.31846602,2.0705025 L7.31846602,7.28099935 C7.31846602,8.42444179 8.22674272,9.35150185 9.34726699,9.35150185 C10.467568,9.35150185 11.3759563,8.42444179 11.3759563,7.28099935 L11.3759563,2.0705025 L11.3759563,2.0705025 Z M41.2383301,5.09358884 L41.2383301,7.21479705 C41.2383301,9.73640953 39.2281748,11.7878831 36.7574612,11.7878831 C34.2866359,11.7878831 32.2764806,9.73640953 32.2764806,7.21479705 L32.2764806,5.09358884 L13.8281359,5.09358884 L13.8281359,7.20533958 C13.8281359,9.72695206 11.8179806,11.7784257 9.34726699,11.7784257 C6.87644175,11.7784257 4.86628641,9.72695206 4.86628641,7.20533958 L4.86628641,5.09358884 L0,5.09358884 L0,46 L46,46 L46,5.09358884 L41.2383301,5.09358884 L41.2383301,5.09358884 Z M41.5339806,41.4421826 L4.46601942,41.4421826 L4.46601942,16.0926277 L41.5339806,16.0926277 L41.5339806,41.4421826 L41.5339806,41.4421826 Z" id="icon-calendar" fill="#0E4577" sketch:type="MSShapeGroup"></path>
    </g>
</svg>