<?xml version="1.0" encoding="UTF-8" standalone="no"?>
<svg width="46px" height="46px" viewBox="0 0 46 46" version="1.1" xmlns="http://www.w3.org/2000/svg" xmlns:xlink="http://www.w3.org/1999/xlink" xmlns:sketch="http://www.bohemiancoding.com/sketch/ns">
    <!-- Generator: Sketch 3.3.2 (12043) - http://www.bohemiancoding.com/sketch -->
    <title>icon-fase-final</title>
    <desc>Created with Sketch.</desc>
    <defs></defs>
    <g id="Page-1" stroke="none" stroke-width="1" fill="none" fill-rule="evenodd" sketch:type="MSPage">
        <path d="M25.6995641,34.1078573 C27.0020826,27.0428076 36.2779217,21.62186 36.2779217,0.520000458 L9.74521913,0.520000458 C9.74521913,21.6219854 19.0213931,27.0428076 20.3235767,34.1078573 L25.6995641,34.1078573 L25.6995641,34.1078573 Z M17.3438395,4.03703975 C17.3643832,11.8307256 18.799208,20.2443352 22.4151317,27.2602324 C17.9010887,21.4066923 14.4792142,14.0419626 14.0862033,4.03703975 L17.3438395,4.03703975 L17.3438395,4.03703975 Z M31.1813964,43.5479023 L31.1813964,46.5200005 L14.8418561,46.5200005 L14.8418561,43.5479023 C19.0734224,43.5479023 20.1894841,39.5605284 20.3754944,36.8992698 L25.6478697,36.8992698 C25.8336567,39.5605284 26.8277957,43.5479023 31.1813964,43.5479023 L31.1813964,43.5479023 Z M11.9059976,23.2754917 C4.87076733,19.9586988 0.675264202,12.0540436 0,3.70212542 L7.20750748,3.70212542 C7.2499348,4.64969096 7.30944469,5.58108131 7.39072649,6.49341251 L2.92815459,6.49341251 C3.67509862,10.4261167 5.52961886,15.6637454 10.0978124,19.0377158 C10.6649986,20.587776 11.2796364,21.9912564 11.9059976,23.2754917 L11.9059976,23.2754917 Z M46.0001407,3.70212542 C45.3258814,12.0421316 41.14132,19.9361288 34.1242889,23.2613227 C34.7510966,21.974705 35.3664043,20.5680899 35.9337022,19.0145188 C40.4792306,15.6397961 42.3267169,10.4170887 43.0720978,6.49341251 L38.6326376,6.49341251 C38.7138077,5.5812067 38.7734293,4.64969096 38.815745,3.70212542 L46.0001407,3.70212542 L46.0001407,3.70212542 Z" id="icon-fase-final" fill="#0D4577" sketch:type="MSShapeGroup"></path>
    </g>
</svg>