<?xml version="1.0" encoding="UTF-8" standalone="no"?>
<svg width="40px" height="44px" viewBox="0 0 40 44" version="1.1" xmlns="http://www.w3.org/2000/svg" xmlns:xlink="http://www.w3.org/1999/xlink" xmlns:sketch="http://www.bohemiancoding.com/sketch/ns">
    <!-- Generator: Sketch 3.3.2 (12043) - http://www.bohemiancoding.com/sketch -->
    <title>icon-groups</title>
    <desc>Created with Sketch.</desc>
    <defs></defs>
    <g id="Page-1" stroke="none" stroke-width="1" fill="none" fill-rule="evenodd" sketch:type="MSPage">
        <g id="icon-groups" sketch:type="MSLayerGroup" fill="#0D4577">
            <g id="Group" sketch:type="MSShapeGroup">
                <g transform="translate(2.230019, 17.239766)" id="Shape">
                    <path d="M7.44483431,26.7516569 L1.58674464,26.7516569 C0.729044834,26.7516569 0.0343079922,26.0483431 0.0343079922,25.1992203 L0.0343079922,13.208577 C0.0343079922,12.3508772 0.737621832,11.6561404 1.58674464,11.6561404 L7.44483431,11.6561404 C8.30253411,11.6561404 8.99727096,12.3594542 8.99727096,13.208577 L8.99727096,25.1992203 C9.00584795,26.0569201 8.30253411,26.7516569 7.44483431,26.7516569 L7.44483431,26.7516569 Z"></path>
                    <path d="M20.2331384,26.7516569 L14.9325536,26.7516569 C13.9290448,26.7516569 13.097076,25.9282651 13.097076,24.9161793 L13.097076,7.61637427 C13.097076,6.6128655 13.9204678,5.78089669 14.9325536,5.78089669 L20.2331384,5.78089669 C21.2366472,5.78089669 22.068616,6.6042885 22.068616,7.61637427 L22.068616,24.9161793 C22.068616,25.9282651 21.2452242,26.7516569 20.2331384,26.7516569 L20.2331384,26.7516569 Z"></path>
                    <path d="M33.0643275,26.7516569 L28.2354776,26.7516569 C27.0947368,26.7516569 26.1684211,25.8167641 26.1684211,24.6846004 L26.1684211,2.08421053 C26.1684211,0.943469786 27.1033138,0.0171539961 28.2354776,0.0171539961 L33.0643275,0.0171539961 C34.2050682,0.0171539961 35.131384,0.952046784 35.131384,2.08421053 L35.131384,24.6846004 C35.131384,25.8253411 34.2050682,26.7516569 33.0643275,26.7516569 L33.0643275,26.7516569 Z"></path>
                </g>
                <path d="M36.0319688,0.0857699805 C34.1450292,0.162962963 32.6783626,1.7582846 32.7555556,3.65380117 L24.0413255,12.2222222 L16.6136452,5.7208577 L3.01910331,19.3582846 C1.26939571,19.5812865 -0.0428849903,21.0908382 0.0257309942,22.8834308 C0.102923977,24.7703704 1.70682261,26.237037 3.59376218,26.1598441 C5.48070175,26.0826511 6.94736842,24.4787524 6.87017544,22.5918129 C6.86159844,22.4374269 6.82729045,22.2916179 6.80155945,22.137232 L17.0339181,12.3165692 L24.2128655,18.6035088 L36.1091618,6.92163743 C36.1777778,6.92163743 36.2463938,6.93879142 36.3150097,6.93021442 C38.2019493,6.85302144 39.668616,5.24912281 39.591423,3.36218324 C39.51423,1.47524366 37.9189084,0.00857699805 36.0319688,0.0857699805 L36.0319688,0.0857699805 Z" id="Shape"></path>
            </g>
        </g>
    </g>
</svg>