<svg width="46" height="46" viewBox="0 0 46 46" xmlns="http://www.w3.org/2000/svg"><title>icon-calendar</title><path d="M16.463 27.552H9.886V20.84h6.577v6.712zM26.4 20.84h-6.577v6.712H26.4V20.84zm9.937 0H29.76v6.712h6.577V20.84zm-19.874 9.8H9.886v6.712h6.577V30.64zm9.937 0h-6.577v6.712H26.4V30.64zm9.937 0H29.76v6.712h6.577V30.64zm2.45-23.35c0 1.144-.91 2.07-2.03 2.07-1.12 0-2.028-.926-2.028-2.07V2.08c0-1.143.907-2.07 2.027-2.07s2.03.927 2.03 2.07v5.21zm-27.41-5.22c0-1.143-.91-2.07-2.03-2.07-1.12 0-2.03.927-2.03 2.07v5.21c0 1.144.91 2.072 2.03 2.072 1.12 0 2.03-.928 2.03-2.07V2.07zm29.86 3.024v2.12c0 2.522-2.01 4.574-4.48 4.574-2.47 0-4.48-2.052-4.48-4.573v-2.12h-18.45v2.11c0 2.522-2.01 4.573-4.48 4.573-2.47 0-4.48-2.05-4.48-4.573v-2.11H0V46h46V5.094h-4.762zm.297 36.348H4.466v-25.35h37.068v25.35z" fill="#0E4577" fill-rule="evenodd"/></svg>