<svg width="46" height="46" viewBox="0 0 46 46" xmlns="http://www.w3.org/2000/svg"><title>icon-fase-final</title><path d="M25.7 34.108C27.002 27.043 36.278 21.622 36.278.52H9.745c0 21.102 9.276 26.523 10.58 33.588H25.7zm-8.356-30.07c.02 7.793 1.455 16.206 5.07 23.222-4.513-5.853-7.935-13.218-8.328-23.223h3.258zm13.837 39.51v2.972H14.843v-2.972c4.23 0 5.347-3.987 5.533-6.65h5.273c.186 2.663 1.18 6.65 5.533 6.65zM11.907 23.275C4.87 19.96.676 12.055 0 3.702h7.208c.042.948.1 1.88.183 2.79H2.93c.747 3.934 2.602 9.172 7.17 12.546.567 1.55 1.182 2.953 1.808 4.237zM46 3.702c-.674 8.34-4.86 16.234-11.876 19.56.627-1.287 1.242-2.694 1.81-4.247 4.545-3.375 6.393-8.598 7.138-12.522h-4.44c.082-.912.14-1.843.184-2.79H46z" fill="#0D4577" fill-rule="evenodd"/></svg>