<svg width="40" height="44" viewBox="0 0 40 44" xmlns="http://www.w3.org/2000/svg"><title>icon-groups</title><g fill="#0D4577" fill-rule="evenodd"><g id="Shape"><path d="M9.675 43.99H3.817c-.858 0-1.553-.702-1.553-1.55V30.447c0-.857.704-1.552 1.553-1.552h5.858c.858 0 1.552.703 1.552 1.552v11.99c.01.86-.694 1.553-1.552 1.553zM22.463 43.99h-5.3c-1.004 0-1.836-.822-1.836-1.834v-17.3c0-1.003.823-1.835 1.836-1.835h5.3c1.004 0 1.836.824 1.836 1.836v17.3c0 1.012-.825 1.835-1.837 1.835zM35.294 43.99h-4.83c-1.14 0-2.066-.933-2.066-2.066v-22.6c0-1.14.935-2.067 2.067-2.067h4.83c1.14 0 2.066.935 2.066 2.067v22.6c0 1.14-.925 2.067-2.066 2.067z"/></g><path d="M36.032.086c-1.887.077-3.354 1.672-3.276 3.568l-8.715 8.568-7.426-6.5L3.02 19.357C1.27 19.58-.044 21.09.025 22.883c.077 1.887 1.68 3.354 3.568 3.277 1.887-.077 3.353-1.68 3.276-3.568-.008-.155-.043-.3-.068-.455l10.232-9.82 7.18 6.287L36.108 6.922c.068 0 .136.017.205.008 1.887-.077 3.354-1.68 3.276-3.568C39.515 1.475 37.92.01 36.033.086z"/></g></svg>