<?xml version="1.0" encoding="UTF-8" standalone="no"?>
<svg width="600px" height="330px" viewBox="0 0 600 330" version="1.1" xmlns="http://www.w3.org/2000/svg" xmlns:xlink="http://www.w3.org/1999/xlink" xmlns:sketch="http://www.bohemiancoding.com/sketch/ns">
    <!-- Generator: Sketch 3.3.2 (12043) - http://www.bohemiancoding.com/sketch -->
    <title>paraguay</title>
    <desc>Created with Sketch.</desc>
    <defs></defs>
    <g id="Page-1" stroke="none" stroke-width="1" fill="none" fill-rule="evenodd" sketch:type="MSPage">
        <g id="paraguay" sketch:type="MSLayerGroup">
            <rect id="Rectangle-path" fill="#0038A8" sketch:type="MSShapeGroup" x="0" y="0" width="600" height="330"></rect>
            <rect id="Rectangle-path" fill="#FFFFFF" sketch:type="MSShapeGroup" x="0" y="0" width="600" height="220"></rect>
            <rect id="Rectangle-path" fill="#D52B1E" sketch:type="MSShapeGroup" x="0" y="0" width="600" height="110"></rect>
            <g id="Group" transform="translate(257.000000, 122.000000)" sketch:type="MSShapeGroup">
                <g stroke="#000000" id="Oval">
                    <circle stroke-width="1.07585" cx="43" cy="43" r="42.2"></circle>
                    <circle stroke-width="0.47815" cx="43" cy="43" r="34.67"></circle>
                    <circle stroke-width="0.43816" cx="43" cy="43" r="26.56"></circle>
                </g>
                <g transform="translate(9.000000, 9.000000)" id="Shape" fill="#000000">
                    <path d="M11.53,50.28 L6.6373,53.1854 L5.141,50.6656 C4.86356,50.19836 4.69155,49.81747 4.62499,49.5229 C4.55839,49.22837 4.58869,48.94105 4.71579,48.66093 C4.84288,48.38082 5.06217,48.14827 5.37366,47.9633 C5.64511,47.80212 5.91364,47.72091 6.17924,47.71967 C6.44486,47.71867 6.69897,47.78277 6.94156,47.91253 C7.09607,47.99533 7.26563,48.13391 7.45024,48.32824 C7.40334,48.11235 7.38544,47.9454 7.39664,47.8274 C7.40364,47.748 7.44144,47.61648 7.50994,47.43284 C7.57844,47.24921 7.63775,47.11845 7.6878,47.04057 L8.67219,45.46737 L9.68689,47.17617 L8.67129,48.87167 C8.5385,49.08897 8.46696,49.25484 8.45668,49.36929 C8.44578,49.52323 8.48128,49.66918 8.56319,49.80712 L8.64249,49.94062 L10.62829,48.76142 L11.53,50.28 Z M7.718,50.48962 L7.33947,49.85218 C7.29847,49.78318 7.197,49.66292 7.03491,49.49132 C6.95541,49.40312 6.8557,49.35171 6.73572,49.33718 C6.61575,49.32268 6.50236,49.34718 6.39556,49.41058 C6.23759,49.50438 6.14606,49.62645 6.12096,49.77678 C6.09586,49.92711 6.16526,50.14022 6.32907,50.41611 L6.72345,51.08026 L7.718,50.48962 Z"></path>
                    <path d="M3.11,46.71 L1.6229,42.2387 L2.7757,41.85529 L3.70666,44.65449 L4.56483,44.36908 L3.70125,41.77248 L4.80255,41.40622 L5.66613,44.00282 L6.73053,43.64881 L5.77263,40.76861 L6.99543,40.36193 L8.50943,44.91433 L3.11,46.71 Z"></path>
                    <path d="M1.16,40.06 L0.8277,37.1562 C0.7553,36.52377 0.8515,36.0329 1.11627,35.6835 C1.38103,35.33415 1.79106,35.1277 2.34637,35.06415 C2.91711,34.99885 3.38277,35.11945 3.74347,35.42584 C4.10411,35.73228 4.32474,36.23771 4.40535,36.94214 L4.51479,37.89851 L6.61259,37.65844 L6.81339,39.41304 L1.16,40.06 Z M3.3694,38.0296 L3.3204,37.60154 C3.2819,37.26476 3.1963,37.03493 3.06373,36.91206 C2.93117,36.78919 2.77362,36.7382 2.59108,36.75908 C2.41369,36.77938 2.27006,36.85578 2.16019,36.98811 C2.05033,37.12049 2.01407,37.34994 2.05143,37.67644 L2.10833,38.1739 L3.3694,38.0296 Z"></path>
                    <path d="M0.98,29.38 L1.16811,27.6357 L4.54101,27.99943 C4.87547,28.03553 5.18566,28.12166 5.47157,28.2579 C5.75749,28.39415 5.99972,28.58554 6.19826,28.83208 C6.3968,29.07862 6.52792,29.32896 6.59161,29.58307 C6.68101,29.93627 6.7001,30.35085 6.64881,30.82677 C6.61911,31.10205 6.56741,31.40034 6.49374,31.72163 C6.42004,32.04292 6.31417,32.30674 6.1761,32.51307 C6.03803,32.71941 5.85373,32.90189 5.62321,33.06052 C5.39268,33.21915 5.1619,33.31984 4.93086,33.36259 C4.55902,33.43179 4.23417,33.45139 3.95631,33.42149 L0.58341,33.05775 L0.77152,31.31345 L4.22542,31.68593 C4.53415,31.71923 4.78457,31.65973 4.97668,31.50733 C5.16879,31.35497 5.28122,31.127 5.31395,30.82341 C5.34645,30.52241 5.28635,30.27713 5.13369,30.08759 C4.98106,29.89805 4.7478,29.78636 4.43392,29.75251 L0.98,29.38 Z"></path>
                    <path d="M1.74,25.21 L2.8261,22.1028 C3.00711,21.58495 3.27432,21.23222 3.62772,21.0446 C3.98112,20.85701 4.34713,20.82938 4.72572,20.9617 C5.04328,21.0727 5.28106,21.26684 5.43907,21.5441 C5.54442,21.72895 5.59666,21.96377 5.5958,22.24854 C5.82353,21.89504 6.08218,21.66679 6.37174,21.56378 C6.6613,21.46078 6.97708,21.46908 7.31906,21.58858 C7.59753,21.68588 7.82529,21.83818 8.00232,22.04533 C8.17936,22.25251 8.29333,22.49108 8.34424,22.76106 C8.37614,22.92848 8.36134,23.15905 8.29984,23.45276 C8.21804,23.84358 8.15582,24.10006 8.11312,24.22219 L7.11152,27.08749 L1.74,25.21 Z M4.4322,24.27195 L4.68451,23.55012 C4.77501,23.29119 4.79341,23.09546 4.73971,22.96291 C4.68601,22.83038 4.57485,22.73465 4.4063,22.67573 C4.24997,22.62113 4.11011,22.62913 3.98674,22.69973 C3.86337,22.77033 3.75771,22.93149 3.66976,23.18308 L3.41361,23.9159 L4.4322,24.27195 Z M6.5427,25.00967 L6.83856,24.16326 C6.93846,23.87746 6.95821,23.65822 6.89786,23.50553 C6.83746,23.35285 6.72178,23.24662 6.55078,23.18685 C6.39201,23.13135 6.2441,23.14475 6.10705,23.22705 C5.97,23.30935 5.85068,23.49585 5.74907,23.78653 L5.45449,24.62928 L6.5427,25.00967 Z"></path>
                    <path d="M4.43,18.37 L5.33849,16.8646 L9.01069,19.0807 L10.42859,16.7312 L11.62829,17.45518 L9.30189,21.31018 L4.43,18.37 Z"></path>
                    <path d="M7.87,13.16 L8.9982,11.8063 L13.3694,15.4493 L12.2412,16.803 L7.87,13.16 Z"></path>
                    <path d="M15.52,10.22 L16.9923,9.56899 C17.19543,9.96421 17.30705,10.34424 17.32715,10.70909 C17.34725,11.07395 17.28025,11.41982 17.12614,11.74669 C16.97203,12.07358 16.70166,12.40314 16.31503,12.73537 C15.84596,13.13844 15.40415,13.39952 14.98963,13.51861 C14.57508,13.63771 14.1123,13.61831 13.60123,13.46031 C13.09021,13.30237 12.6045,12.9555 12.14413,12.41971 C11.53026,11.70532 11.24836,10.99311 11.29842,10.28311 C11.34852,9.5731 11.72091,8.91961 12.41562,8.32261 C12.95927,7.85547 13.48102,7.59815 13.98102,7.55066 C14.48098,7.50316 15.00212,7.64216 15.54452,7.96763 L14.59209,9.24153 C14.43789,9.14543 14.31207,9.08639 14.21465,9.06433 C14.05238,9.02633 13.89366,9.02633 13.73849,9.06408 C13.58333,9.10188 13.43902,9.17813 13.30556,9.2928 C13.00332,9.55252 12.87629,9.8732 12.92447,10.25485 C12.95797,10.53998 13.14079,10.87586 13.47303,11.26245 C13.88452,11.74133 14.2392,12.00718 14.53703,12.06 C14.83488,12.1128 15.11531,12.0262 15.3783,11.80025 C15.63344,11.58101 15.76471,11.34368 15.77212,11.08826 C15.77912,10.83284 15.69542,10.54343 15.51991,10.22003 L15.52,10.22 Z"></path>
                    <path d="M21.58,8.04 L19.8126,8.98226 L20.01132,9.94079 L18.42552,10.78626 L17.63575,4.75886 L19.32775,3.85678 L23.89205,7.87188 L22.26855,8.73744 L21.58,8.04 Z M20.67575,7.12772 L19.15855,5.61852 L19.56944,7.71752 L20.67575,7.12772 Z"></path>
                    <path d="M26.05,1.3 L28.6241,0.85542 C29.13153,0.76782 29.55332,0.76582 29.8895,0.84942 C30.22564,0.93322 30.51795,1.0862 30.76643,1.3085 C31.0149,1.53082 31.21454,1.80489 31.36535,2.13072 C31.51616,2.45656 31.62459,2.81072 31.69066,3.19322 C31.79415,3.79245 31.8062,4.26892 31.72686,4.62272 C31.64746,4.97649 31.50591,5.28586 31.30221,5.55081 C31.0985,5.81577 30.86406,6.00922 30.5989,6.13117 C30.23657,6.29879 29.90114,6.40924 29.5926,6.46253 L27.0185,6.90711 L26.05,1.3 Z M28.002,2.27061 L28.53114,5.33431 L28.9557,5.26101 C29.31778,5.19851 29.56839,5.11384 29.70751,5.00709 C29.84663,4.90034 29.94225,4.7394 29.99438,4.52426 C30.04648,4.30912 30.03378,3.97715 29.95628,3.52837 C29.85366,2.93424 29.68652,2.54426 29.45486,2.35847 C29.22319,2.17265 28.88296,2.11849 28.43416,2.196 L28.002,2.27061 Z"></path>
                    <path d="M33.36,0.32 L38.0678,0.5213 L38.0159,1.7351 L35.0687,1.60908 L35.0301,2.51264 L37.7641,2.62955 L37.7145,3.78905 L34.9805,3.67214 L34.9326,4.79284 L37.9652,4.92251 L37.9102,6.21001 L33.117,6.00506 L33.36,0.32 Z"></path>
                    <path d="M40.21,0.86 L41.9179,1.27801 L40.8982,5.44411 L43.5637,6.09651 L43.23058,7.45751 L38.85718,6.38711 L40.21,0.86 Z"></path>
                    <path d="M49.34,3.89 L51.856,5.3773 C52.40397,5.70123 52.73736,6.07417 52.8562,6.4961 C52.975,6.91804 52.8922,7.36958 52.60777,7.8507 C52.31543,8.34522 51.93827,8.6438 51.47627,8.74645 C51.01428,8.8491 50.47812,8.72005 49.86777,8.35922 L49.03912,7.86937 L47.96462,9.68707 L46.44432,8.78834 L49.34,3.89 Z M49.6258,6.8771 L49.99669,7.09635 C50.28849,7.26885 50.52338,7.33932 50.70136,7.30776 C50.87934,7.27616 51.01507,7.18134 51.10857,7.02318 C51.19947,6.86948 51.22522,6.70888 51.18597,6.54138 C51.14667,6.37389 50.98562,6.20652 50.70272,6.03928 L50.27169,5.78448 L49.6258,6.8771 Z"></path>
                    <path d="M54.56,13.51 L53.0934,12.146 L52.2519,12.64615 L50.9359,11.42225 L56.3772,8.71205 L57.7813,10.01785 L55.4722,15.64115 L54.125,14.38815 L54.56,13.51 Z M55.12794,12.3579 L56.06057,10.4318 L54.20987,11.5041 L55.12794,12.3579 Z"></path>
                    <path d="M55.81,16.14 L60.502,12.9206 L62.16,15.337 C62.46744,15.78507 62.664,16.15389 62.7497,16.4434 C62.8354,16.73295 62.824,17.02164 62.7155,17.30947 C62.60701,17.5973 62.40341,17.8437 62.1047,18.04866 C61.84438,18.22727 61.58175,18.32588 61.31679,18.34449 C61.05182,18.36309 60.79405,18.31559 60.54348,18.20194 C60.38388,18.12944 60.20562,18.00225 60.00868,17.82042 C60.06968,18.03278 60.09838,18.19819 60.09498,18.31667 C60.09298,18.39637 60.06408,18.53007 60.00778,18.7178 C59.95138,18.90553 59.90083,19.03988 59.85598,19.12088 L58.97667,20.75508 L57.85227,19.11638 L58.75468,17.35798 C58.87297,17.13246 58.9335,16.96226 58.93627,16.84738 C58.93708,16.69305 58.89207,16.54975 58.80134,16.41746 L58.71354,16.28944 L56.80924,17.59604 L55.81,16.14 Z M59.6001,15.68133 L60.01954,16.29264 C60.06494,16.35874 60.17409,16.47216 60.34707,16.63278 C60.43217,16.71558 60.53503,16.76036 60.6557,16.76701 C60.77637,16.77401 60.88791,16.74181 60.99034,16.67161 C61.14182,16.56767 61.22517,16.43987 61.24038,16.28822 C61.25558,16.13657 61.17238,15.92846 60.99087,15.66388 L60.55387,15.02697 L59.6001,15.68133 Z"></path>
                    <path d="M61.36,24.2 L60.61771,22.3398 L59.64314,22.432 L58.97709,20.7628 L65.05479,20.64028 L65.76544,22.42118 L61.27304,26.51648 L60.59116,24.80768 L61.36,24.2 Z M62.3662,23.4015 L64.033,22.0594 L61.9015,22.2371 L62.3662,23.4015 Z"></path>
                    <path d="M63.85,29.62 L65.0208,29.44481 L65.42288,32.13191 L63.02368,32.49091 C62.59611,32.02897 62.2894,31.60979 62.10356,31.23331 C61.91771,30.85686 61.7842,30.39737 61.70302,29.85481 C61.60312,29.18687 61.63552,28.62541 61.80032,28.17031 C61.96509,27.71524 62.25536,27.33821 62.67112,27.03921 C63.08687,26.74021 63.5865,26.54705 64.17002,26.45974 C64.78422,26.36784 65.33742,26.41454 65.82962,26.59997 C66.32178,26.78536 66.72215,27.10484 67.03072,27.55841 C67.26948,27.91254 67.4371,28.41206 67.53361,29.05701 C67.62661,29.67889 67.63995,30.15241 67.57351,30.47771 C67.50701,30.80293 67.37067,31.08498 67.1644,31.32386 C66.95811,31.56274 66.68093,31.76054 66.33284,31.91729 L65.78241,30.28459 C65.98448,30.1837 66.12947,30.0423 66.21738,29.86039 C66.30528,29.67847 66.33008,29.45956 66.29178,29.20364 C66.23468,28.82232 66.05681,28.53824 65.75805,28.35139 C65.45928,28.16453 65.02328,28.11399 64.45005,28.19977 C63.84097,28.29087 63.42305,28.47053 63.19625,28.73863 C62.96949,29.00674 62.88674,29.34552 62.94801,29.75503 C62.97711,29.94953 63.03301,30.13086 63.11575,30.29902 C63.19845,30.46717 63.32469,30.65499 63.49441,30.86246 L64.02416,30.78316 L63.85,29.62 Z"></path>
                    <path d="M67.57,37.88 L67.41424,39.6275 L64.03524,39.32631 C63.70017,39.29641 63.38844,39.21605 63.10005,39.08513 C62.81166,38.9542 62.56593,38.76733 62.36285,38.52452 C62.15978,38.28169 62.02405,38.03383 61.95566,37.78094 C61.85966,37.42945 61.83296,37.0153 61.87546,36.53844 C61.90006,36.26265 61.94616,35.96345 62.01392,35.64085 C62.08162,35.31825 62.18261,35.05252 62.31684,34.84366 C62.45106,34.6348 62.63195,34.44894 62.85949,34.28607 C63.08704,34.12319 63.31592,34.01825 63.54613,33.97122 C63.91662,33.89512 64.24105,33.86949 64.51941,33.89432 L67.89841,34.19551 L67.74265,35.94301 L64.28245,35.63459 C63.97316,35.60699 63.72388,35.67119 63.53463,35.82707 C63.34537,35.98296 63.23719,36.21298 63.21008,36.51712 C63.18318,36.81868 63.24788,37.0628 63.40395,37.24948 C63.56007,37.43615 63.79536,37.5435 64.10981,37.57154 L67.57,37.88 Z"></path>
                    <path d="M61.28,43.9 L61.90561,41.9974 L61.09937,41.4422 L61.66071,39.735 L66.39821,43.5441 L65.79928,45.3656 L59.72568,45.6199 L60.30036,43.8721 L61.28,43.9 Z M62.564,43.934 L64.7036,43.9756 L62.9556,42.743 L62.564,43.934 Z"></path>
                    <path d="M64.6,48.56 L63.5963,50.2346 L61.3577,50.2326 L62.4151,52.2058 L61.4174,53.8705 L59.7182,50.2727 L57.674,49.0475 L58.57991,47.536 L60.62411,48.7612 L64.6,48.56 Z"></path>
                </g>
                <g transform="translate(19.000000, 21.000000)" id="Shape" stroke="#000000" stroke-width="0.1" fill="#009B3A">
                    <path d="M37.68,5.34 C37.9776335,6.5139085 37.9831283,7.48023514 37.6922966,7.50254544 C37.401465,7.52485573 36.9235638,6.59476837 36.6228,5.4211 C36.4267963,4.65623617 36.3467002,3.93992093 36.4128726,3.54367823 C36.479045,3.14743554 36.6813573,3.13191574 36.9431218,3.50300172 C37.2048863,3.8740877 37.4860362,4.57497968 37.68,5.34 L37.68,5.34 Z"></path>
                    <path d="M37.13,5.49 C37.4910623,6.2181361 37.7335773,6.92540375 37.7658576,7.34440725 C37.7981378,7.76341076 37.6152579,7.83021546 37.2863588,7.5195646 C36.9574598,7.20891373 36.5327275,6.56820872 36.17274,5.83968 C35.6186398,4.71831374 35.3837506,3.73318195 35.647506,3.63683408 C35.9112613,3.5404862 36.5742455,4.36923807 37.13,5.49 L37.13,5.49 Z"></path>
                    <path d="M35.52,6.55 C36.651969,6.8836255 37.5428811,7.3934791 37.5153253,7.69189027 C37.4877695,7.99030143 36.5520646,7.96552505 35.41968,7.6364 C34.287711,7.3027745 33.3967989,6.7929209 33.4243547,6.49450973 C33.4519105,6.19609857 34.3876154,6.22087495 35.52,6.55 L35.52,6.55 Z"></path>
                    <path d="M35.76,5.96 C36.4334391,6.41041105 37.0129709,6.91553069 37.278917,7.28388735 C37.5448631,7.652244 37.4565162,7.82745473 37.0473652,7.74310383 C36.6382142,7.65875293 35.9708863,7.32775167 35.29834,6.87557 C34.6249009,6.42515895 34.0453691,5.92003931 33.779423,5.55168265 C33.5134769,5.183326 33.6018238,5.00811527 34.0109748,5.09246617 C34.4201258,5.17681707 35.0874537,5.50781833 35.76,5.96 L35.76,5.96 Z"></path>
                    <path d="M36.44,5.68 C37.0116487,6.27299834 37.473947,6.890709 37.6518732,7.29927288 C37.8297994,7.70783676 37.6961595,7.84480948 37.3015484,7.65833452 C36.9069372,7.47185956 36.3116666,6.99043752 35.7411,6.39633 C34.8643013,5.48335548 34.3110566,4.58591195 34.5034648,4.38870525 C34.695873,4.19149854 35.5615382,4.76872998 36.44,5.68 L36.44,5.68 Z"></path>
                    <path d="M37.56,7.7 C37.569,7.71 36.94072,8.04913 36.79843,8.09979 C36.65612,8.15039 36.46323,7.91026 36.05398,8.12029 C35.64474,8.33032 35.36382,8.71343 35.27448,8.93827 C35.18518,9.1631 35.39043,9.25731 35.88506,9.01687 C36.37969,8.77645 36.50987,8.39553 36.74836,8.24628 C36.98683,8.09706 37.38686,7.87743 37.61454,7.79637 C37.71314,7.58113 38.03328,7.1197 38.19877,6.85488 C38.36426,6.59008 39.0136,6.15302 39.24997,5.64418 C39.45631,5.22327 39.37883,4.8648 39.10266,5.01458 C38.82649,5.16437 38.46943,5.58746 38.30315,5.89115 C38.13686,6.19486 38.27965,6.58153 38.09495,6.86609 C37.94948,7.07229 37.59768,7.6994 37.56,7.69995 L37.56,7.7 Z"></path>
                    <path d="M42.53,9.34 C42.5466476,10.5185762 42.419939,11.5736036 42.1976043,12.1076636 C41.9752696,12.6417236 41.6910866,12.5736798 41.4521043,11.9291636 C41.213122,11.2846474 41.0556476,10.1615762 41.039,8.983 C41.0132651,7.16107906 41.3261746,5.76403749 41.7379028,5.86262032 C42.1496311,5.96120315 42.5042651,7.51807906 42.53,9.34 L42.53,9.34 Z"></path>
                    <path d="M41.7,9.31 C41.9586476,10.5139698 42.0600907,11.6347312 41.9660023,12.2488403 C41.8719139,12.8629495 41.5966393,12.8767753 41.2441823,12.2850941 C40.8917253,11.6934129 40.5158237,10.5864363 40.2585,9.3824 C39.9998524,8.1784302 39.8984093,7.05766883 39.9924977,6.44355966 C40.0865861,5.82945049 40.3618607,5.8156247 40.7143177,6.40730592 C41.0667747,6.99898714 41.4426763,8.10596371 41.7,9.31 L41.7,9.31 Z"></path>
                    <path d="M39.13,10.11 C40.0833644,10.7492196 40.9192108,11.487149 41.3201095,12.0435443 C41.7210081,12.5999396 41.6254578,12.8894453 41.0697458,12.8021156 C40.5140338,12.7147858 39.5834108,12.2640179 38.6313,11.621 C37.6779356,10.9817804 36.8420892,10.243851 36.4411905,9.68745569 C36.0402919,9.13106039 36.1358422,8.84155474 36.6915542,8.92888444 C37.2472662,9.01621415 38.1778892,9.46698214 39.13,10.11 L39.13,10.11 Z"></path>
                    <path d="M39.65,9.38 C40.8486731,10.8350558 41.6072909,12.2552307 41.3481127,12.5589622 C41.0889345,12.8626937 39.9092315,11.9359896 38.70743,10.4846 C37.9235287,9.53789939 37.2876893,8.55454352 37.0411137,7.90756281 C36.7945382,7.2605821 36.9750025,7.04909556 37.5140485,7.35332939 C38.0530946,7.65756322 38.8681393,8.43090807 39.65,9.38 L39.65,9.38 Z"></path>
                    <path d="M40.69,9.28 C41.284686,10.3844975 41.719696,11.4749378 41.8305273,12.1389618 C41.9413585,12.8029857 41.7110948,12.9392428 41.2268122,12.4962062 C40.7425296,12.0531696 40.0781446,11.0984604 39.4849,9.99311 C38.890214,8.88861253 38.455204,7.79817218 38.3443727,7.13414824 C38.2335415,6.47012431 38.4638052,6.33386723 38.9480878,6.77690379 C39.4323704,7.21994035 40.0967554,8.17464955 40.69,9.28 L40.69,9.28 Z"></path>
                    <path d="M41.57,12.67 C41.58,12.6878 40.59675,12.89286 40.3829,12.90175 C40.16905,12.91075 39.98146,12.48031 39.3451,12.59796 C38.70879,12.71561 38.1929,13.13857 37.9947,13.42058 C37.79652,13.70261 38.0496,13.9294 38.81423,13.80644 C39.57886,13.68347 39.88533,13.19618 40.26503,13.08917 C40.64471,12.98217 41.27143,12.84665 41.61363,12.83246 C41.8214,12.56831 42.41761,12.05075 42.73453,11.74556 C43.05141,11.44038 44.09543,11.10502 44.59123,10.48216 C45.01637,9.9717 45.02778,9.42366 44.59623,9.51456 C44.16415,9.60546 43.52953,10.05163 43.19873,10.41215 C42.86786,10.77269 42.93761,11.3904 42.58753,11.71525 C42.31779,11.94547 41.62291,12.68616 41.57053,12.67008 L41.57,12.67 Z"></path>
                    <path d="M45.14,16 C44.9438688,17.1686405 44.6294687,18.188301 44.3154569,18.6741528 C44.0014451,19.1600045 43.7356361,19.0380671 43.6183486,18.3543608 C43.501061,17.6706544 43.5501542,16.5292868 43.7471,15.36102 C43.9432312,14.1923795 44.2576313,13.172719 44.5716431,12.6868672 C44.8856549,12.2010155 45.1514639,12.3229529 45.2687514,13.0066592 C45.386039,13.6903656 45.3369458,14.8317332 45.14,16 L45.14,16 Z"></path>
                    <path d="M44.35,15.8 C44.3867346,17.0421561 44.2840862,18.1737034 44.0810166,18.7651454 C43.8779469,19.3565874 43.6055885,19.3172505 43.3673192,18.6620658 C43.1290499,18.0068811 42.9613986,16.8362943 42.928,15.59462 C42.8912654,14.3524639 42.9939138,13.2209166 43.1969834,12.6294746 C43.4000531,12.0380326 43.6724115,12.0773695 43.9106808,12.7325542 C44.1489501,13.3877389 44.3166014,14.5583257 44.35,15.8 L44.35,15.8 Z"></path>
                    <path d="M41.69,16.1 C42.9449612,17.3559409 43.7921698,18.6867217 43.5822933,19.0723821 C43.3724168,19.4580425 42.1849312,18.7525409 40.92997,17.4966 C39.6750088,16.2406591 38.8278002,14.9098783 39.0376767,14.5242179 C39.2475532,14.1385575 40.4350388,14.8440591 41.69,16.1 L41.69,16.1 Z"></path>
                    <path d="M42.33,15.48 C42.9218524,16.5622677 43.361954,17.6490411 43.4845228,18.3309433 C43.6070915,19.0128454 43.3935064,19.186279 42.9242227,18.7859133 C42.4549391,18.3855476 41.8012524,17.4722077 41.2094,16.38994 C40.6175476,15.3076723 40.177446,14.2208989 40.0548772,13.5389967 C39.9323085,12.8570946 40.1458936,12.683661 40.6151773,13.0840267 C41.0844609,13.4843924 41.7381476,14.3977323 42.33,15.48 L42.33,15.48 Z"></path>
                    <path d="M43.35,15.58 C43.7342893,16.7884028 43.9648726,17.9547132 43.9540798,18.6354885 C43.943287,19.3162638 43.6927761,19.4069232 43.2977938,18.8729972 C42.9028115,18.3390712 42.4240351,17.2625815 42.0435,16.05282 C41.6592107,14.8444172 41.4286274,13.6781068 41.4394202,12.9973315 C41.450213,12.3165562 41.7007239,12.2258968 42.0957062,12.7598228 C42.4906885,13.2937488 42.9694649,14.3702385 43.35,15.58 L43.35,15.58 Z"></path>
                    <path d="M43.61,19.09 C43.616,19.1095 42.61852,19.1232 42.4079,19.09066 C42.19728,19.05836 42.09155,18.59731 41.44838,18.59129 C40.80521,18.58529 40.22468,18.90389 39.98008,19.14436 C39.73551,19.38483 39.94198,19.65744 40.71151,19.68286 C41.48105,19.70836 41.86851,19.28589 42.25891,19.25313 C42.64933,19.22043 43.28631,19.20693 43.62331,19.25813 C43.87405,19.03716 44.55016,18.64052 44.91491,18.39996 C45.27968,18.15941 46.36061,18.02874 46.95761,17.50876 C47.46524,17.08627 47.57526,16.54716 47.13655,16.55397 C46.69783,16.56097 45.99705,16.87951 45.60865,17.17204 C45.22022,17.46456 45.17696,18.08804 44.77618,18.34164 C44.471,18.5172 43.65818,19.11527 43.60988,19.08932"></path>
                    <path d="M45.34,23.42 C44.3646724,24.9676999 43.3472678,25.9608033 43.0675632,25.6381586 C42.7878586,25.3155138 43.3517724,23.7992999 44.3271,22.2516 C45.3024275,20.7039003 46.3198319,19.7107972 46.5995365,20.0334419 C46.8792411,20.3560866 46.3153274,21.8723002 45.34,23.42"></path>
                    <path d="M44.69,22.91 C43.9966516,24.7049339 43.1642513,25.9857735 42.8307817,25.7708353 C42.4973122,25.5558972 42.7890516,23.9265739 43.4824,22.13164 C44.1757484,20.3367061 45.0081487,19.0558665 45.3416183,19.2708047 C45.6750878,19.4857428 45.3833484,21.1150661 44.69,22.91"></path>
                    <path d="M42.17,22.09 C42.8184533,23.7734706 43.0687166,25.3577595 42.7289786,25.6286082 C42.3892406,25.8994569 41.5881533,24.7543006 40.9397,23.07083 C40.2912468,21.3873596 40.0409837,19.8030711 40.3807216,19.5322224 C40.7204595,19.2613737 41.5215467,20.4065297 42.17,22.09"></path>
                    <path d="M42.99,21.78 C43.1656985,23.7021387 43.0038605,25.3388383 42.6277527,25.4434786 C42.2516448,25.5481189 41.8024477,24.0814209 41.6223,22.16052 C41.5048141,20.9077775 41.5273213,19.7104633 41.6812847,19.0227083 C41.8352481,18.3349533 42.0970841,18.2621055 42.3674807,18.8317956 C42.6378772,19.4014857 42.8754158,20.5264502 42.99,21.78"></path>
                    <path d="M43.88,22.3 C43.7573902,23.5725578 43.5138768,24.7387559 43.2411891,25.3592988 C42.9685013,25.9798416 42.7080669,25.9604539 42.557989,25.3084388 C42.4079111,24.6564237 42.3909901,23.4708378 42.5136,22.19828 C42.7031384,20.2310762 43.1626687,18.6591133 43.5399896,18.6872025 C43.9173106,18.7152917 44.0695384,20.3327962 43.88,22.3"></path>
                    <path d="M42.75,25.66 C42.748,25.6806 41.83955,25.28084 41.6614,25.1638 C41.48328,25.04675 41.5666,24.57553 40.98665,24.30403 C40.40673,24.03253 39.75745,24.08798 39.44265,24.20983 C39.12787,24.3317 39.20893,24.66985 39.89572,25.01158 C40.58249,25.35332 41.09722,25.1218 41.46342,25.25284 C41.82957,25.38389 42.41148,25.63476 42.69652,25.82204 C43.0093,25.72079 43.77542,25.63252 44.19902,25.56026 C44.62264,25.48806 45.65192,25.81372 46.39432,25.57836 C47.01791,25.39645 47.32684,24.94202 46.92704,24.76696 C46.52722,24.59189 45.76904,24.59774 45.30384,24.70836 C44.83862,24.81903 44.55738,25.37929 44.09614,25.44874 C43.7517,25.48534 42.78364,25.70392 42.75004,25.6599"></path>
                    <path d="M43.34,30.95 C42.3164486,31.8268631 41.3009899,32.4792926 40.6761374,32.6615246 C40.0512848,32.8437565 39.9119684,32.5281056 40.3106673,31.8334745 C40.7093662,31.1388434 41.5855086,30.170763 42.60906,29.2939 C43.6326114,28.4170369 44.6480701,27.7646074 45.2729226,27.5823754 C45.8977752,27.4001435 46.0370916,27.7157944 45.6383927,28.4104255 C45.2396938,29.1050566 44.3635514,30.073137 43.34,30.95"></path>
                    <path d="M42.79,30.16 C41.4368562,31.8904521 40.0996053,33.0031412 39.8031664,32.6452607 C39.5067276,32.2873802 40.3633562,30.5944521 41.7165,28.864 C42.5918306,27.7445938 43.5029733,26.8337278 44.1067096,26.4745166 C44.7104459,26.1153054 44.9150539,26.3623216 44.6434596,27.1225166 C44.3718654,27.8827116 43.6653306,29.0405938 42.79,30.16"></path>
                    <path d="M40.29,28.34 C40.3954949,29.6972955 40.3324474,31.0152256 40.1247312,31.7947383 C39.9170151,32.5742509 39.5963848,32.6961788 39.2842513,32.1143523 C38.9721178,31.5325257 38.7161982,30.335891 38.6134,28.97757 C38.5079051,27.6202745 38.5709526,26.3023444 38.7786688,25.5228317 C38.9863849,24.7433191 39.3070152,24.6213912 39.6191487,25.2032177 C39.9312822,25.7850443 40.1872018,26.981679 40.29,28.34"></path>
                    <path d="M41.29,28.29 C40.8520784,30.4792772 40.1344834,32.2335136 39.6852687,32.2129345 C39.236054,32.1923553 39.2244862,30.404715 39.6594,28.2153 C39.9420368,26.7924682 40.3596955,25.482825 40.7544335,24.7816274 C41.1491715,24.0804298 41.4607392,24.0947031 41.5713134,24.8190498 C41.6818877,25.5433964 41.5745915,26.8672577 41.29,28.29"></path>
                    <path d="M42.1,29.18 C41.5462507,30.5458806 40.8920592,31.7530363 40.3854521,32.3437927 C39.878845,32.9345491 39.5973845,32.8184605 39.647782,32.0395402 C39.6981795,31.2606198 40.0727192,29.9381215 40.6294,28.57345 C41.1831493,27.2075694 41.8373408,26.0004137 42.3439479,25.4096573 C42.850555,24.8189009 43.1320155,24.9349895 43.081618,25.7139098 C43.0312205,26.4928302 42.6566808,27.8153285 42.1,29.18"></path>
                    <path d="M39.75,32.49 C39.741,32.512 38.87242,31.74214 38.7148,31.54851 C38.55721,31.35489 38.8038,30.86488 38.25463,30.35541 C37.70551,29.84595 36.97263,29.67227 36.58603,29.69292 C36.19948,29.71362 36.17757,30.11615 36.82124,30.74182 C37.46492,31.36746 38.10764,31.29812 38.46764,31.57522 C38.82761,31.85232 39.38571,32.33975 39.63784,32.64952 C40.01542,32.65052 40.88774,32.8306 41.37774,32.9041 C41.86779,32.9776 42.89374,33.70945 43.78824,33.71822 C44.53445,33.74302 45.02384,33.35318 44.6413,33.01532 C44.25873,32.67744 43.4223,32.40964 42.8738,32.36352 C42.32533,32.31732 41.8316,32.83407 41.301,32.74386 C40.90981,32.65966 39.7724,32.55073 39.7499,32.48998"></path>
                    <path d="M38.17,37.54 C36.6969354,37.7851848 35.3509794,37.8204486 34.6428037,37.6324119 C33.9346281,37.4443752 33.9727502,37.0618519 34.7427061,36.6299758 C35.512662,36.1980996 36.8964674,35.7830494 38.36909,35.5423 C39.8421546,35.2971152 41.1881106,35.2618514 41.8962863,35.4498881 C42.6044619,35.6379248 42.5663398,36.0204481 41.7963839,36.4523242 C41.026428,36.8842004 39.6426226,37.2992506 38.17,37.54"></path>
                    <path d="M38.09,36.47 C35.8388471,37.3331304 33.9404594,37.6179382 33.8498322,37.1061359 C33.759205,36.5943337 35.5106571,35.4797305 37.76181,34.6166 C40.0129629,33.7534696 41.9113506,33.4686618 42.0019778,33.9804641 C42.0926049,34.4922663 40.3411529,35.6068695 38.09,36.47"></path>
                    <path d="M36.66,33.29 C35.6718105,35.373165 34.4305087,36.9805718 33.8874748,36.8802438 C33.3444408,36.7799158 33.7053106,35.0098451 34.6935,32.92668 C35.3327466,31.5791082 36.1108412,30.3685247 36.7346832,29.7509445 C37.3585252,29.1333644 37.733338,29.2026128 37.7179333,29.9326045 C37.7025286,30.6625963 37.2992467,31.9424282 36.66,33.29"></path>
                    <path d="M37.66,33.83 C36.6114131,35.0164793 35.4963848,36.0161787 34.7349355,36.4525211 C33.9734861,36.8888635 33.681298,36.6955581 33.9684355,35.9454211 C34.255573,35.1952842 35.0784131,34.0022793 36.127,32.8158 C37.7479747,30.9816622 39.4052078,29.7218363 39.828534,30.0018998 C40.2518602,30.2819634 39.2809745,31.9958621 37.66,33.83"></path>
                    <path d="M37.95,35.15 C36.6715199,36.1259129 35.3848236,36.8922312 34.5759473,37.1594862 C33.767071,37.4267412 33.5593108,37.1541955 34.0311459,36.4448005 C34.502981,35.7354054 35.5824901,34.6972932 36.8619,33.7226 C38.8332193,32.2207892 40.6715872,31.3237279 40.9715514,31.7172293 C41.2715156,32.1107307 39.9198867,33.64631 37.95,35.15"></path>
                    <path d="M33.87,36.93 C33.8493,36.9457 33.43148,35.7112 33.38511,35.4359 C33.33871,35.16059 33.84437,34.83716 33.59266,34.0351 C33.34094,33.233 32.72839,32.6439 32.34406,32.44 C31.95969,32.23607 31.71866,32.60627 31.99818,33.5736 C32.2777,34.54088 32.93588,34.8466 33.13198,35.3184 C33.32805,35.79013 33.60048,36.5765 33.67464,37.017 C34.03831,37.2367 34.78204,37.91207 35.21494,38.2654 C35.64777,38.61872 36.23824,39.9081 37.09684,40.4338 C37.80351,40.88895 38.48884,40.80123 38.30414,40.25867 C38.11945,39.71608 37.45842,38.97767 36.95424,38.61657 C36.45006,38.25548 35.69134,38.46133 35.22854,38.06868 C34.89696,37.76238 33.85874,37.00098 33.87014,36.93008"></path>
                    <path d="M31.4,41.24 C29.0848782,41.2680226 27.22061,40.7544378 27.2225308,40.0891547 C27.2244516,39.4238715 29.0918437,38.855481 31.407,38.8155 C33.7221218,38.7874774 35.58639,39.3010622 35.5844692,39.9663453 C35.5825484,40.6316285 33.7151563,41.200019 31.4,41.24"></path>
                    <path d="M30.84,37.45 C29.363763,39.3563165 27.7644062,40.5649872 27.2677365,40.1496414 C26.7710668,39.7342957 27.565163,37.8522165 29.0414,35.9459 C29.9963579,34.7127294 31.050181,33.7165727 31.8059043,33.3326725 C32.5616276,32.9487723 32.9044389,33.2354522 32.7052043,34.0847225 C32.5059698,34.9339929 31.7949579,36.2168294 30.84,37.45"></path>
                    <path d="M31.43,39.38 C29.2638995,40.3139745 27.3161492,40.5699828 27.079578,39.9518104 C26.8430068,39.3336381 28.4071995,38.0753745 30.5733,37.1414 C32.7394005,36.2074255 34.6871508,35.9514172 34.923722,36.5695896 C35.1602932,37.1877619 33.5961005,38.4460255 31.43,39.38"></path>
                    <path d="M32.58,2.66 C33.6486416,3.62383869 34.2911844,4.52383194 34.0172246,4.67308359 C33.7432647,4.82233523 32.6559345,4.16465946 31.58511,3.20201 C30.8886066,2.57586756 30.3391344,1.94429126 30.1446366,1.54629577 C29.9501389,1.14830029 30.1403283,1.04468625 30.6432294,1.27466551 C31.1461304,1.50464476 31.8849164,2.03308405 32.58,2.66"></path>
                    <path d="M31.29,3.75 C32.7405991,3.9384773 33.9617612,4.33518355 34.017542,4.63606826 C34.0733227,4.93695296 32.9425991,5.02807722 31.492,4.8396 C30.5536267,4.71767659 29.6672835,4.5011764 29.1668474,4.27165297 C28.6664112,4.04212953 28.6279102,3.83445292 29.0658474,3.72685292 C29.5037845,3.61925293 30.3516267,3.62807654 31.29,3.75"></path>
                    <path d="M31.81,3.06 C33.1762813,3.7552296 34.1660212,4.51157939 34.0206461,4.74935454 C33.8752709,4.9871297 32.6498313,4.6162896 31.28355,3.92106 C29.9172687,3.2258304 28.9275288,2.46948061 29.0729039,2.23170546 C29.2182791,1.9939303 30.4437187,2.3647704 31.81,3.06"></path>
                    <path d="M16.56,5.16 C16.5473,5.1297 20.6301,3.0126 20.6301,3.0126 L16.1419,4.1603 L15.62046,4.94994 L16.56001,5.15999"></path>
                    <path d="M20.42,6.15 C18.8442,5.86355 16.4208,5.33367 14.8779,5.2101 C15.9444,4.0288 17.4139,2.0312 18.3196,0.805 C17.72156,1.9745 16.7828,3.5167 16.4123,4.6362 C17.4985,5.2225 19.2059,5.6816 20.4201,6.15"></path>
                    <path d="M15.83,5.41 C15.8123,5.3821 19.4468,2.6096 19.4468,2.6096 L15.2462,4.4888 L14.87233,5.35727 L15.82999,5.40997"></path>
                    <path d="M19.69,6.11 C18.1033,5.80833 15.6613,5.25206 14.1106,5.11881 C15.1584,3.90201 16.595,1.84321 17.4805,0.57941 C16.90262,1.78571 15.9899,3.37591 15.6394,4.53141 C16.7406,5.14116 18.4626,5.62171 19.69,6.11001"></path>
                    <path d="M15.23,5.64 C15.22,5.6089 19.4891,3.8562 19.4891,3.8562 L14.9027,4.61099 L14.31058,5.35067 L15.23,5.64004"></path>
                    <path d="M19.21,6.15 C17.6051,6.01621 15.1244,5.71679 13.575,5.75027 C14.46823,4.39927 15.6471,2.14987 16.3743,0.76877 C15.94459,2.05797 15.2289,3.77387 15.018,4.98657 C16.1788,5.48642 17.9386,5.78729 19.21,6.14997"></path>
                    <path d="M14.79,5.66 C14.7667,5.6363 17.6754,2.1441 17.6754,2.1441 L14.0193,4.8779 L13.84963,5.81041 L14.79003,5.66001"></path>
                    <path d="M19.19,6.38 C17.4704,6.3473 14.8031,6.19571 13.1593,6.3417 C13.97293,4.8041 14.9998,2.2658 15.6339,0.707 C15.30682,2.1444 14.71862,4.0678 14.6165,5.4062 C15.9009,5.86978 17.8019,6.07389 19.19,6.37997"></path>
                    <path d="M14.21,6.49 C14.1877,6.4592 17.7139,3.1281 17.7139,3.1281 L13.4741,5.4739 L13.18371,6.4787 L14.20991,6.49"></path>
                    <path d="M18.42,6.49 C16.572,6.497 13.7264,6.3967 11.9232,6.59867 C13.1194,4.88447 14.753,2.06267 15.7599,0.32967 C15.10925,1.92127 14.0763,4.05467 13.6888,5.53177 C14.978,6.01031 16.9862,6.18758 18.42,6.49003"></path>
                    <path d="M13.03,6.74 C13.0124,6.7067 17.506,2.9489 17.506,2.9489 L12.4469,5.6391 L11.92548,6.7532 L13.03008,6.74"></path>
                    <path d="M17.75,6.6 C15.92,6.86391 13.0862,7.16204 11.3284,7.6097 C12.26806,5.7723 13.4824,2.7942 14.2318,0.9648 C13.81512,2.6069 13.0972,4.8303 12.9249,6.3241 C14.2709,6.61123 16.286,6.50467 17.75,6.60004"></path>
                    <path d="M12.43,7.49 C12.4041,7.4632 15.8787,2.7131 15.8787,2.7131 L11.5749,6.6046 L11.34426,7.7968 L12.43006,7.49"></path>
                    <path d="M16.74,7.17 C14.8974,7.34159 12.0501,7.49693 10.2693,7.85564 C11.3111,6.06844 12.6914,3.15614 13.5428,1.36734 C13.03432,2.98584 12.1923,5.16954 11.9362,6.65214 C13.2644,7.0064 15.2832,7.0012 16.74,7.16992"></path>
                    <path d="M11.81,7.99 C11.7921,7.9562 16.2002,4.1909 16.2002,4.1909 L11.2192,6.8753 L10.71573,7.9966 L11.81003,7.9896"></path>
                    <path d="M16.2,7.36 C14.363,7.74744 11.5127,8.23846 9.7579,8.802 C10.61617,6.9256 11.6951,3.9058 12.3615,2.0505 C12.02224,3.698 11.40749,5.9394 11.3079,7.4237 C12.6831,7.61306 14.7152,7.3678 16.2001,7.36"></path>
                    <path d="M11.08,8.19 C11.05,8.1687 13.8845,2.9827 13.8845,2.9827 L10.0886,7.4855 L10.0258,8.6752 L11.08,8.18998"></path>
                    <path d="M16.2,7.66 C14.2291,8.17269 11.1576,8.8452 9.2985,9.551 C10.01241,7.4177 10.8293,3.9977 11.3349,1.8964 C11.16326,3.7514 10.76142,6.2818 10.8331,7.944 C12.3671,8.0957 14.5697,7.73336 16.2001,7.65998"></path>
                    <path d="M10.53,9.39 C10.5002,9.3597 14.0634,4.1715 14.0634,4.1715 L9.5455,8.3894 L9.3549,9.7059 L10.53,9.39001"></path>
                    <path d="M15.42,8.25 C13.4826,8.86271 10.4576,9.6926 8.6405,10.4901 C9.25132,8.3437 9.9045,4.9203 10.3095,2.8167 C10.2253,4.6589 9.94358,7.1809 10.09254,8.8196 C11.62604,8.8869 13.80094,8.41029 15.42004,8.25001"></path>
                    <path d="M9.82,10.16 C9.7857,10.1358 12.5055,4.3993 12.5055,4.3993 L8.6871,9.3606 L8.7044,10.6852 L9.82,10.15999"></path>
                    <path d="M14.68,9.04 C12.6953,9.49234 9.6078,10.0722 7.7261,10.7186 C8.52916,8.629 9.4903,5.2698 10.0846,3.206 C9.83352,5.0355 9.32405,7.5265 9.32361,9.1722 C10.84441,9.36471 13.05331,9.06746 14.68001,9.04009"></path>
                    <path d="M9.18,10.71 C9.1562,10.6746 13.5681,6.2018 13.5681,6.2018 L8.3951,9.5398 L7.97382,10.806 L9.18002,10.7099"></path>
                    <path d="M13.8,9.82 C11.834,10.08388 8.7832,10.36834 6.9058,10.84 C7.81855,8.7928 8.9638,5.4691 9.671,3.4275 C9.3133,5.2646 8.6626,7.7494 8.5609,9.4242 C10.0343,9.77069 12.2097,9.68686 13.7999,9.82004"></path>
                    <path d="M8.31,10.26 C8.2777,10.2329 11.2957,4.6191 11.2957,4.6191 L7.2458,9.3657 L7.1827,10.7098 L8.31,10.26004"></path>
                    <path d="M14.04,9.15 C11.9019,10.02557 8.5622,11.2458 6.5588,12.3251 C7.21575,9.7867 7.9083,5.7655 8.3379,3.2943 C8.2609,5.4353 7.97143,8.3806 8.15063,10.2658 C9.84793,10.2125 12.25013,9.4742 14.03993,9.1499"></path>
                    <path d="M7.9,11.97 C7.8654,11.9398 11.4737,5.4967 11.4737,5.4967 L6.7561,10.9741 L6.62578,12.5037 L7.89998,11.97001"></path>
                    <path d="M13.22,9.95 C11.1249,10.9347 7.8458,12.3275 5.8942,13.5053 C6.4369,10.9672 6.9491,6.9663 7.2679,4.5073 C7.2865,6.6208 7.12858,9.5388 7.3914,11.3857 C9.0832,11.23618 11.448,10.3717 13.22,9.9499"></path>
                    <path d="M7.17,12.95 C7.1308,12.9275 9.7778,5.9835 9.7778,5.9835 L5.8749,12.2055 L5.9739,13.7137 L7.17,12.95006"></path>
                    <path d="M12.3,10.53 C10.2098,11.5313 6.9374,12.9501 4.9921,14.1431 C5.5189,11.6023 6.0059,7.6001 6.3091,5.1402 C6.3412,7.2521 6.20189,10.1693 6.4767,12.0128 C8.1686,11.84944 10.5294,10.966 12.3,10.53"></path>
                    <path d="M6.58,13.78 C6.5481,13.7462 10.6145,7.6367 10.6145,7.6367 L5.5276,12.6649 L5.27968,14.1882 L6.57998,13.78002"></path>
                    <path d="M12.11,10.21 C10.2464,11.6977 7.2982,13.8846 5.6177,15.5192 C5.6147,12.9545 5.27135,9.0016 5.06403,6.571 C5.53165,8.5836 5.99578,11.4102 6.64843,13.1046 C8.29043,12.51953 10.44633,11.076 12.10993,10.2101"></path>
                    <path d="M6.78,14.07 C6.7353,14.064 7.24739,6.7087 7.24739,6.7087 L5.30359,13.8655 L5.84597,15.2137 L6.77997,14.0701"></path>
                    <path d="M11.58,10.89 C9.711,12.3682 6.7549,14.5399 5.0682,16.1659 C5.0762,13.6002 4.7491,9.6439 4.55197,7.2113 C5.01104,9.2272 5.46323,12.0574 6.10857,13.7559 C7.75237,13.17953 9.91337,11.7471 11.57997,10.8899"></path>
                    <path d="M6.31,15.32 C6.2684,15.3025 8.1901,8.1274 8.1901,8.1274 L4.9368,14.7419 L5.1935,16.2187 L6.31,15.32007"></path>
                    <path d="M11.37,11.06 C9.6038,12.8 6.7918,15.3817 5.2304,17.2514 C4.95356,14.6198 4.176,10.6026 3.702,8.132 C4.4002,10.1438 5.1818,12.9914 6.0371,14.6554 C7.6709,13.86706 9.7438,12.1389 11.3699,11.0599"></path>
                    <path d="M6.32,16.24 C6.2738,16.233 6.67192,8.5902 6.67192,8.5902 L4.79302,16.0229 L5.37651,17.4258 L6.31998,16.24"></path>
                    <path d="M10.81,12.33 C8.9198,13.8928 5.9259,16.192 4.2278,17.9056 C4.1687,15.2406 3.72719,11.1362 3.45984,8.6124 C3.98658,10.6995 4.52764,13.6325 5.23824,15.3872 C6.91964,14.76439 9.11244,13.2449 10.81004,12.33"></path>
                    <path d="M5.76,17.11 C5.7197,17.0852 8.4232,9.9148 8.4232,9.9148 L4.4295,16.2899 L4.53396,17.8692 L5.75996,17.11005"></path>
                    <path d="M10.78,12.36 C9.1071,14.1296 6.4435,16.7557 4.9648,18.6562 C4.7006,15.9886 3.9608,11.9174 3.5099,9.4136 C4.17306,11.4516 4.9159,14.3367 5.7277,16.0215 C7.2758,15.21731 9.2394,13.4589 10.78,12.3599"></path>
                    <path d="M5.86,17.48 C5.8132,17.47934 5.54497,9.873 5.54497,9.873 L4.31317,17.4494 L5.0194,18.7663 L5.86005,17.4799"></path>
                    <path d="M9.96,12.93 C8.3414,14.7155 5.7586,17.3666 4.3377,19.2815 C3.99537,16.6132 3.1368,12.5438 2.6128,10.0411 C3.33506,12.0757 4.1618,14.9578 5.0221,16.6377 C6.5444,15.81974 8.4538,14.043 9.96,12.9301"></path>
                    <path d="M5.43,18.24 C5.3871,18.2273 6.27948,10.5124 6.27948,10.5124 L4.01368,17.8218 L4.46526,19.3229 L5.43005,18.2401"></path>
                    <path d="M9.61,13.23 C8.1302,15.1635 5.7539,18.052 4.4813,20.095 C3.93709,17.4744 2.7713,13.5105 2.0584,11.0723 C2.93364,13.0257 3.9774,15.8117 4.9636,17.3987 C6.4208,16.43685 8.1914,14.4837 9.61,13.23"></path>
                    <path d="M5.4,18.96 C5.3557,18.958 4.90968,11.223 4.90968,11.223 L3.93554,18.8987 L4.63708,20.2509 L5.4,18.96"></path>
                    <path d="M9.46,13.67 C8.0709,15.6946 5.8293,18.7278 4.654,20.8517 C3.97471,18.2414 2.603,14.3111 1.7634,11.8933 C2.74156,13.8143 3.9312,16.565 5.0023,18.1113 C6.4178,17.0663 8.098,15.0068 9.4601,13.67"></path>
                    <path d="M5.88,19.68 C5.8367,19.6658 6.66724,11.9082 6.66724,11.9082 L4.45234,19.2134 L4.91936,20.7424 L5.88004,19.68"></path>
                    <path d="M9.18,14.39 C7.9826,16.596 6.0294,19.9234 5.0533,22.1984 C4.14355,19.6976 2.4272,15.9808 1.3755,13.6937 C2.52,15.4676 3.9493,18.037 5.1524,19.4255 C6.4642,18.1898 7.9476,15.9085 9.18,14.39"></path>
                    <path d="M5.61,20.32 C5.5665,20.3321 3.438,12.9498 3.438,12.9498 L4.17203,20.7184 L5.15064,21.8139 L5.60995,20.32"></path>
                    <path d="M9.13,15.25 C7.8824,17.4493 5.8494,20.7666 4.8286,23.0348 C3.91336,20.5416 2.1788,16.836 1.1161,14.5558 C2.2783,16.3244 3.7268,18.886 4.9521,20.2702 C6.3096,19.0382 7.8517,16.7638 9.1299,15.25"></path>
                    <path d="M5.71,21.71 C5.6641,21.71002 4.91257,13.9604 4.91257,13.9604 L4.19478,21.7108 L4.97035,23.0389 L5.71,21.7099"></path>
                    <path d="M9.26,15.93 C7.9772,18.0998 5.8911,21.3689 4.8338,23.6128 C3.95919,21.0983 2.2851,17.3522 1.2597,15.0472 C2.3929,16.8429 3.7995,19.4384 5.0021,20.8514 C6.3792,19.6515 7.9576,17.4136 9.26,15.93"></path>
                    <path d="M5.64,22.33 C5.5943,22.335 4.202,14.7196 4.202,14.7196 L4.1317,22.5139 L5.01418,23.741 L5.63999,22.33"></path>
                    <path d="M8.71,17.03 C7.3263,19.108 5.0884,22.2281 3.9264,24.3958 C3.1733,21.8242 1.681,17.9672 0.7673,15.5944 C1.8127,17.4662 3.093,20.1555 4.2259,21.6498 C5.6575,20.5469 7.3395,18.4214 8.7101,17.03"></path>
                    <path d="M4.97,23.18 C4.9253,23.1678 5.61352,15.401 5.61352,15.401 L3.49372,22.7772 L4.00584,24.2806 L4.96997,23.18"></path>
                    <path d="M8.79,17.22 C7.6071,19.4704 5.6716,22.8712 4.7174,25.1808 C3.72991,22.7283 1.8882,19.0991 0.7595,16.8658 C1.9727,18.5837 3.4952,21.082 4.7603,22.4132 C6.0813,21.1247 7.5564,18.7868 8.79,17.22"></path>
                    <path d="M4.71,23.83 C4.6655,23.8439 2.3228,16.58 2.3228,16.58 L3.24167,24.2896 L4.27007,25.3387 L4.71009,23.83"></path>
                    <path d="M8.47,17.8 C7.64401,20.2697 6.2502,24.034 5.6582,26.5118 C4.3174,24.318 1.9588,21.1547 0.512,19.2071 C1.9645,20.6299 3.8388,22.7517 5.2843,23.7832 C6.3909,22.2285 7.4913,19.609 8.47,17.8"></path>
                    <path d="M6.83,24.42 C6.7859,24.4357 4.2451,17.2701 4.2451,17.2701 L5.3747,24.9377 L6.4314,25.9451 L6.82993,24.42"></path>
                    <path d="M8.45,18.56 C7.64183,21.0381 6.2752,24.8168 5.7011,27.3006 C4.3445,25.1211 1.963,21.9828 0.5021,20.0505 C1.9649,21.4579 3.8545,23.5599 5.3075,24.5761 C6.4029,23.0099 7.4844,20.3791 8.45,18.56"></path>
                    <path d="M6.85,25.64 C6.8079,25.6624 3.5242,18.9534 3.5242,18.9534 L5.461,26.3781 L6.6168,27.21313 L6.85005,25.63993"></path>
                    <path d="M8.2,19.18 C7.6833,21.7526 6.7622,25.6946 6.4783,28.2394 C4.8817,26.2731 2.1582,23.5032 0.4867,21.797 C2.0997,22.9826 4.2162,24.7956 5.7745,25.5948 C6.68103,23.8851 7.4514,21.1219 8.2,19.18"></path>
                    <path d="M7.07,26.69 C7.0246,26.699 5.2766,19.1921 5.2766,19.1921 L5.57231,26.9765 L6.51121,28.1411 L7.06997,26.6901"></path>
                    <path d="M8.21,19.98 C7.93666,22.6103 7.38949,26.6581 7.34457,29.2292 C5.57777,27.487 2.61817,25.0967 0.80127,23.6235 C2.51177,24.58639 4.78007,26.106 6.40037,26.6917 C7.14069,24.8678 7.64797,22.0137 8.21007,19.98"></path>
                    <path d="M7.16,27.24 C7.1246,27.2746 2.4194,21.827 2.4194,21.827 L5.9916,28.383 L7.2969,28.82901 L7.16,27.24001"></path>
                    <path d="M8.31,20.9 C8.0263,23.5285 7.46317,27.5728 7.40813,30.1435 C5.64813,28.3914 2.69773,25.9844 0.88653,24.501 C2.59333,25.47355 4.85573,27.006 6.47383,27.6008 C7.22137,25.7813 7.73983,22.9303 8.31003,20.9"></path>
                    <path d="M7.69,28.49 C7.649,28.5142 4.0489,21.965 4.0489,21.965 L6.3363,29.2893 L7.5313,30.07086 L7.69003,28.49006"></path>
                    <path d="M8.52,21.98 C8.34699,24.6243 7.95443,28.7007 8.0072,31.2734 C6.1773,29.629 3.1321,27.4022 1.2623,26.0294 C3.0065,26.8979 5.3285,28.2922 6.9682,28.7886 C7.63801,26.9247 8.036,24.0438 8.52,21.98"></path>
                    <path d="M8.15,29.69 C8.1131,29.7223 3.6513,23.9859 3.6513,23.9859 L6.9319,30.7558 L8.2167,31.28425 L8.15,29.68995"></path>
                    <path d="M8.57,23.2 C8.41291,25.846 8.04491,29.9261 8.11314,32.4986 C6.27364,30.87 3.21534,28.6696 1.33764,27.3129 C3.08674,28.1663 5.41694,29.5405 7.05944,30.0227 C7.71795,28.1528 8.09864,25.2682 8.57004,23.2"></path>
                    <path d="M8.56,30.66 C8.5173,30.6797 5.4057,23.783 5.4057,23.783 L7.1513,31.3117 L8.286,32.21581 L8.56,30.66001"></path>
                    <path d="M8.69,23.99 C8.7803,26.645 8.79463,30.7557 9.10156,33.307 C7.12516,31.9336 3.88656,30.1552 1.89746,29.0578 C3.71206,29.6717 6.15156,30.7258 7.82586,30.9846 C8.30526,29.0347 8.41459,26.1122 8.68998,23.9901"></path>
                    <path d="M9.11,30.39 C9.0834,30.4335 3.3484,26.4452 3.3484,26.4452 L8.2328,31.8276 L9.5903,31.8977 L9.1099,30.39"></path>
                    <path d="M8.87,24.27 C9.09922,26.9128 9.32861,31.0094 9.76939,33.5407 C7.71849,32.2465 4.38259,30.5963 2.33349,29.5776 C4.18269,30.12093 6.68049,31.0794 8.37059,31.274 C8.74864,29.3124 8.70529,26.3954 8.87004,24.2699"></path>
                    <path d="M9.73,31.86 C9.6947,31.8936 4.9294,26.3417 4.9294,26.3417 L8.5654,32.9675 L9.8794,33.44649 L9.72996,31.85999"></path>
                    <path d="M9.29,25.28 C9.63006,27.9117 10.03172,31.9988 10.5779,34.5062 C8.4797,33.3343 5.086,31.8834 3.0012,30.9871 C4.8667,31.41955 7.3961,32.2285 9.0883,32.3215 C9.38211,30.3351 9.21567,27.4177 9.29003,25.28"></path>
                    <path d="M10.69,32.79 C10.6629,32.8331 4.9725,28.7497 4.9725,28.7497 L9.7952,34.2115 L11.1526,34.3048 L10.69,32.79"></path>
                    <path d="M9.47,26.4 C9.98244,29.0008 10.6527,33.0519 11.3615,35.5088 C9.1997,34.53494 5.7327,33.4047 3.6026,32.7053 C5.4841,32.96135 8.0501,33.53119 9.737,33.46402 C9.89696,31.44882 9.53799,28.54572 9.46996,26.39992"></path>
                    <path d="M11.32,33.59 C11.2843,33.6228 6.591,27.9841 6.591,27.9841 L10.1399,34.6742 L11.4482,35.17807 L11.32008,33.59007"></path>
                    <path d="M9.78,27.12 C10.53054,29.6493 11.5731,33.6061 12.5043,35.9654 C10.2759,35.28185 6.7425,34.6167 4.571,34.2031 C6.4551,34.2071 9.0451,34.43305 10.7065,34.1403 C10.6756,32.106 10.04845,29.2542 9.77994,27.12"></path>
                    <path d="M11.57,33.6 C11.56,33.6517 4.9636,32.1848 4.9636,32.1848 L11.2462,35.3081 L12.5153,34.83049 L11.57009,33.59999"></path>
                    <path d="M10.21,27.91 C10.95065,30.443 11.9777,34.4048 12.8998,36.7688 C10.6736,36.0728 7.1422,35.3878 4.9719,34.9621 C6.8563,34.9768 9.4461,35.21731 11.1089,34.934 C11.0861,32.9 10.47012,30.0453 10.21002,27.91"></path>
                    <path d="M12.65,34.3 C12.6303,34.3468 6.3291,31.2472 6.3291,31.2472 L11.9983,35.8431 L13.3566,35.71582 L12.64993,34.30002"></path>
                    <path d="M9.88,28.35 C11.1354,30.6582 12.9709,34.2981 14.3675,36.4001 C12.0517,36.22337 8.4664,36.3527 6.262,36.4274 C8.1012,36.01553 10.6753,35.66486 12.2359,35.0118 C11.78509,33.0289 10.5834,30.3781 9.88,28.35"></path>
                    <path d="M13.65,34.99 C13.6377,35.0408 7.0819,33.176 7.0819,33.176 L13.2461,36.6664 L14.5423,36.27055 L13.64994,34.99005"></path>
                    <path d="M10.56,29.33 C11.8289,31.6292 13.6858,35.2563 15.0945,37.3481 C12.7794,37.19074 9.1977,37.3501 6.9955,37.4437 C8.8307,37.01604 11.4006,36.64345 12.9559,35.9768 C12.493,33.9963 11.2756,31.3537 10.5601,29.3301"></path>
                    <path d="M14.48,35.53 C14.4566,35.5741 8.3595,31.8686 8.3595,31.8686 L13.7071,36.9862 L15.0822,36.9998 L14.48001,35.5299"></path>
                    <path d="M11.07,29.91 C12.5396,32.056 14.7156,35.46 16.3023,37.3792 C14.0132,37.52274 10.5107,38.14994 8.3568,38.5308 C10.1178,37.86172 12.6057,37.1522 14.0686,36.2794 C13.42164,34.3488 11.9693,31.851 11.07,29.91"></path>
                    <path d="M14.93,36.07 C14.928,36.1238 8.3234,35.91432 8.3234,35.91432 L14.8595,37.84582 L16.0217,37.12375 L14.9299,36.06995"></path>
                    <path d="M18.76,4.06 C18.76065,4.0394 23.5133,3.26701 23.5133,3.26701 L18.7842,3.37732 L17.95917,3.80111 L18.76003,4.06"></path>
                    <path d="M21.37,5.07 C19.9909,4.65326 17.9069,3.9552 16.4913,3.6475 C17.9956,3.04959 20.222,1.989 21.5921,1.3385 C20.538,1.99831 19.0053,2.8461 18.1883,3.5076 C18.97755,4.0437 20.4101,4.5904 21.3701,5.07"></path>
                    <path d="M18.55,4.22 C18.545,4.2001 23.1486,2.9567 23.1486,2.9567 L18.3844,3.564 L17.6659,4.05717 L18.54999,4.22"></path>
                    <path d="M21.59,5.41 C19.9786,5.25819 17.5072,4.94912 15.9172,4.93324 C17.1152,3.87244 18.7947,2.09764 19.8293,1.00804 C19.11798,2.03204 18.0243,3.39094 17.5528,4.35944 C18.6332,4.79311 20.3676,5.08344 21.59,5.40994"></path>
                    <path d="M16.84,4.55 C16.844,4.5291 21.6195,4.01031 21.6195,4.01031 L16.9625,3.86123 L16.09154,4.24416 L16.84006,4.55"></path>
                    <path d="M20.38,5.59 C18.9147,5.30982 16.6882,4.82168 15.206,4.64784 C16.6142,3.95662 18.6666,2.76714 19.9299,2.03734 C18.98668,2.7498 17.595,3.68004 16.891,4.37444 C17.78328,4.81665 19.3259,5.21551 20.38,5.59004"></path>
                    <path d="M16.43,4.5 C16.4179,4.482 20.637,2.6894 20.637,2.6894 L16.0291,3.9057 L15.47694,4.46663 L16.43,4.49993"></path>
                    <path d="M20.24,6.12 C19.0206,5.6164 17.1524,4.7633 15.946,4.4083 C16.88012,3.53924 18.1965,2.0162 19.0074,1.082 C18.44345,2.01553 17.5815,3.2226 17.2008,4.1484 C18.01056,4.83766 19.32,5.5142 20.24,6.1201"></path>
                    <path d="M16.67,4.81 C16.661,4.7818 19.9432,3.3916 19.9432,3.3916 L16.3787,3.87995 L15.94043,4.51523 L16.67004,4.80998"></path>
                    <path d="M13.93,35.46 C13.933,35.5124 7.1466,35.5112 7.1466,35.5112 L14.0153,37.1905 L15.1422,36.45208 L13.93,35.46001"></path>
                    <path d="M15.15,35.9 C15.142,35.9497 8.2605,34.2976 8.2605,34.2976 L14.8764,37.5408 L16.1728,37.12367 L15.15,35.89997"></path>
                    <path d="M16.28,36.36 C16.27999,36.412 9.4403,36.01521 9.4403,36.01521 L16.2797,38.07691 L17.4524,37.41212 L16.2801,36.36002"></path>
                    <path d="M11.94,31.53 C13.7194,33.4911 16.3852,36.616 18.2523,38.3452 C15.9547,38.69229 12.4949,39.621 10.3665,40.1875 C12.058,39.37535 14.4798,38.4581 15.8417,37.4741 C14.92421,35.6488 13.1144,33.3428 11.94,31.5301"></path>
                    <path d="M17.22,36.71 C17.2075,36.7579 10.3831,34.4727 10.3831,34.4727 L16.8076,38.2926 L18.1535,38.00884 L17.22,36.70994"></path>
                    <path d="M12.57,31.98 C14.5093,33.7487 17.4342,36.5879 19.4346,38.1109 C17.2331,38.74488 13.9606,40.1111 11.9469,40.9466 C13.5092,39.9158 15.7717,38.6887 16.995,37.5242 C15.9095,35.7872 13.9043,33.6727 12.57,31.98"></path>
                    <path d="M17.78,37.13 C17.7906,37.1827 11.2925,38.4057 11.2925,38.4057 L18.1287,38.87158 L19.09384,37.91859 L17.78004,37.13004"></path>
                    <path d="M16.43,36.72 C16.437,36.7721 9.6633,37.23919 9.6633,37.23919 L16.645,38.43889 L17.7143,37.62513 L16.4299,36.71997"></path>
                    <path d="M17.68,37.08 C17.675,37.1301 10.6832,35.9583 10.6832,35.9583 L17.53,38.7343 L18.7926,38.22906 L17.6799,37.07996 L17.68,37.08 Z"></path>
                    <path d="M18.84,37.46 C18.844,37.5118 11.9874,37.58836 11.9874,37.58836 L18.9686,39.17126 L20.0891,38.42772 L18.84,37.46 L18.84,37.46 Z"></path>
                    <path d="M14.14,32.94 C16.0633,34.7719 18.9586,37.7025 20.952,39.2972 C18.6849,39.8017 15.3013,40.9662 13.2195,41.6776 C14.8468,40.75139 17.1951,39.67 18.4805,38.5952 C17.4277,36.8392 15.4481,34.6657 14.1399,32.94 L14.14,32.94 Z"></path>
                    <path d="M19.81,37.74 C19.801,37.7887 12.8181,35.9819 12.8181,35.9819 L19.5172,39.3459 L20.8393,38.97018 L19.81,37.73998 L19.81,37.74 Z"></path>
                    <path d="M14.81,33.34 C16.8785,34.9691 20.011,37.5971 22.1219,38.977 C19.9722,39.76083 16.8085,41.3484 14.8614,42.3201 C16.3433,41.1849 18.5094,39.8057 19.6429,38.5606 C18.4291,36.9042 16.2689,34.935 14.81,33.34 L14.81,33.34 Z"></path>
                    <path d="M20.4,38.12 C20.4145,38.1719 14.0206,39.8392 14.0206,39.8392 L20.8787,39.8322 L21.77044,38.8157 L20.39994,38.1204 L20.4,38.12 Z"></path>
                </g>
                <path d="M48.21,49.52 L42.9988,45.9185 L37.7875,49.52 L39.7417,43.7576 L35.1818,40.156 L41.0444,40.156 L42.9986,34.3936 L44.9528,40.156 L50.8154,40.156 L46.2556,43.7576 L48.2098,49.52 L48.21,49.52 Z" id="Shape" stroke="#000000" stroke-width="0.298846" fill="#FEDF00"></path>
            </g>
        </g>
    </g>
</svg>