<?xml version="1.0" encoding="UTF-8" standalone="no"?>
<svg width="600px" height="400px" viewBox="0 0 600 400" version="1.1" xmlns="http://www.w3.org/2000/svg" xmlns:xlink="http://www.w3.org/1999/xlink" xmlns:sketch="http://www.bohemiancoding.com/sketch/ns">
    <!-- Generator: Sketch 3.3.2 (12043) - http://www.bohemiancoding.com/sketch -->
    <title>uruguay</title>
    <desc>Created with Sketch.</desc>
    <defs></defs>
    <g id="Page-1" stroke="none" stroke-width="1" fill="none" fill-rule="evenodd" sketch:type="MSPage">
        <g id="uruguay" sketch:type="MSLayerGroup">
            <rect id="Rectangle-path" fill="#FFFFFF" sketch:type="MSShapeGroup" x="0" y="0" width="600" height="400"></rect>
            <g id="Group" transform="translate(0.000000, 44.444444)" fill="#0038A8" sketch:type="MSShapeGroup">
                <rect id="Rectangle-path" x="222.222222" y="0" width="377.777778" height="44.4444444"></rect>
                <rect id="Rectangle-path" x="222.222222" y="88.8888889" width="377.777778" height="44.4444444"></rect>
                <rect id="Rectangle-path" x="0" y="177.777778" width="600" height="44.4444444"></rect>
                <rect id="Rectangle-path" x="0" y="266.666667" width="600" height="44.4444444"></rect>
            </g>
            <g id="Group" transform="translate(25.555556, 25.555556)" stroke="#000000" stroke-width="0.5" sketch:type="MSShapeGroup">
                <g id="u">
                    <g id="t" transform="translate(0.000000, 56.222222)">
                        <g id="s" transform="translate(46.444444, 29.333333)">
                            <g id="Group" transform="translate(22.854253, 48.828989) rotate(22.500000) translate(-22.854253, -48.828989) translate(11.854253, 19.495655)">
                                <path d="M11,0 L22,7.33333333 C2.44444444,39.1111111 24.4444444,44 7.33333333,58.6666667 C14.6666667,41.5555556 0,46.4444444 0,17.1111111" id="Shape" fill="#FCD116"></path>
                                <path d="M7.33333333,4.88888889 C2.44444444,36.6666667 18.3333333,46.4444444 7.33333333,58.6666667" id="Shape"></path>
                            </g>
                            <path d="M39.1111111,0 L53.7777778,0 L39.1111111,80.6666667 L24.4444444,0 L39.1111111,0 L39.1111111,80.6666667" id="Shape" fill="#FCD116"></path>
                        </g>
                        <g id="s-link" transform="translate(48.393166, 49.210891) rotate(45.000000) translate(-48.393166, -49.210891) translate(21.504277, 8.877557)">
                            <g id="s">
                                <g id="Group" transform="translate(22.854253, 48.828989) rotate(22.500000) translate(-22.854253, -48.828989) translate(11.854253, 19.495655)">
                                    <path d="M11,0 L22,7.33333333 C2.44444444,39.1111111 24.4444444,44 7.33333333,58.6666667 C14.6666667,41.5555556 0,46.4444444 0,17.1111111" id="Shape" fill="#FCD116"></path>
                                    <path d="M7.33333333,4.88888889 C2.44444444,36.6666667 18.3333333,46.4444444 7.33333333,58.6666667" id="Shape"></path>
                                </g>
                                <path d="M39.1111111,0 L53.7777778,0 L39.1111111,80.6666667 L24.4444444,0 L39.1111111,0 L39.1111111,80.6666667" id="Shape" fill="#FCD116"></path>
                            </g>
                        </g>
                    </g>
                    <g id="t-link" transform="translate(59.888889, 50.111111) rotate(90.000000) translate(-59.888889, -50.111111) translate(9.777778, -4.888889)">
                        <g id="t">
                            <g id="s" transform="translate(46.444444, 29.333333)">
                                <g id="Group" transform="translate(22.854253, 48.828989) rotate(22.500000) translate(-22.854253, -48.828989) translate(11.854253, 19.495655)">
                                    <path d="M11,0 L22,7.33333333 C2.44444444,39.1111111 24.4444444,44 7.33333333,58.6666667 C14.6666667,41.5555556 0,46.4444444 0,17.1111111" id="Shape" fill="#FCD116"></path>
                                    <path d="M7.33333333,4.88888889 C2.44444444,36.6666667 18.3333333,46.4444444 7.33333333,58.6666667" id="Shape"></path>
                                </g>
                                <path d="M39.1111111,0 L53.7777778,0 L39.1111111,80.6666667 L24.4444444,0 L39.1111111,0 L39.1111111,80.6666667" id="Shape" fill="#FCD116"></path>
                            </g>
                            <g id="s-link" transform="translate(48.393166, 49.210891) rotate(45.000000) translate(-48.393166, -49.210891) translate(21.504277, 8.877557)">
                                <g id="s">
                                    <g id="Group" transform="translate(22.854253, 48.828989) rotate(22.500000) translate(-22.854253, -48.828989) translate(11.854253, 19.495655)">
                                        <path d="M11,0 L22,7.33333333 C2.44444444,39.1111111 24.4444444,44 7.33333333,58.6666667 C14.6666667,41.5555556 0,46.4444444 0,17.1111111" id="Shape" fill="#FCD116"></path>
                                        <path d="M7.33333333,4.88888889 C2.44444444,36.6666667 18.3333333,46.4444444 7.33333333,58.6666667" id="Shape"></path>
                                    </g>
                                    <path d="M39.1111111,0 L53.7777778,0 L39.1111111,80.6666667 L24.4444444,0 L39.1111111,0 L39.1111111,80.6666667" id="Shape" fill="#FCD116"></path>
                                </g>
                            </g>
                        </g>
                    </g>
                </g>
                <g id="u-link" transform="translate(113.666667, 88.000000) rotate(180.000000) translate(-113.666667, -88.000000) translate(56.222222, 4.888889)">
                    <g id="u">
                        <g id="t" transform="translate(0.000000, 56.222222)">
                            <g id="s" transform="translate(46.444444, 29.333333)">
                                <g id="Group" transform="translate(22.854253, 48.828989) rotate(22.500000) translate(-22.854253, -48.828989) translate(11.854253, 19.495655)">
                                    <path d="M11,0 L22,7.33333333 C2.44444444,39.1111111 24.4444444,44 7.33333333,58.6666667 C14.6666667,41.5555556 0,46.4444444 0,17.1111111" id="Shape" fill="#FCD116"></path>
                                    <path d="M7.33333333,4.88888889 C2.44444444,36.6666667 18.3333333,46.4444444 7.33333333,58.6666667" id="Shape"></path>
                                </g>
                                <path d="M39.1111111,0 L53.7777778,0 L39.1111111,80.6666667 L24.4444444,0 L39.1111111,0 L39.1111111,80.6666667" id="Shape" fill="#FCD116"></path>
                            </g>
                            <g id="s-link" transform="translate(48.393166, 49.210891) rotate(45.000000) translate(-48.393166, -49.210891) translate(21.504277, 8.877557)">
                                <g id="s">
                                    <g id="Group" transform="translate(22.854253, 48.828989) rotate(22.500000) translate(-22.854253, -48.828989) translate(11.854253, 19.495655)">
                                        <path d="M11,0 L22,7.33333333 C2.44444444,39.1111111 24.4444444,44 7.33333333,58.6666667 C14.6666667,41.5555556 0,46.4444444 0,17.1111111" id="Shape" fill="#FCD116"></path>
                                        <path d="M7.33333333,4.88888889 C2.44444444,36.6666667 18.3333333,46.4444444 7.33333333,58.6666667" id="Shape"></path>
                                    </g>
                                    <path d="M39.1111111,0 L53.7777778,0 L39.1111111,80.6666667 L24.4444444,0 L39.1111111,0 L39.1111111,80.6666667" id="Shape" fill="#FCD116"></path>
                                </g>
                            </g>
                        </g>
                        <g id="t-link" transform="translate(59.888889, 50.111111) rotate(90.000000) translate(-59.888889, -50.111111) translate(9.777778, -4.888889)">
                            <g id="t">
                                <g id="s" transform="translate(46.444444, 29.333333)">
                                    <g id="Group" transform="translate(22.854253, 48.828989) rotate(22.500000) translate(-22.854253, -48.828989) translate(11.854253, 19.495655)">
                                        <path d="M11,0 L22,7.33333333 C2.44444444,39.1111111 24.4444444,44 7.33333333,58.6666667 C14.6666667,41.5555556 0,46.4444444 0,17.1111111" id="Shape" fill="#FCD116"></path>
                                        <path d="M7.33333333,4.88888889 C2.44444444,36.6666667 18.3333333,46.4444444 7.33333333,58.6666667" id="Shape"></path>
                                    </g>
                                    <path d="M39.1111111,0 L53.7777778,0 L39.1111111,80.6666667 L24.4444444,0 L39.1111111,0 L39.1111111,80.6666667" id="Shape" fill="#FCD116"></path>
                                </g>
                                <g id="s-link" transform="translate(48.393166, 49.210891) rotate(45.000000) translate(-48.393166, -49.210891) translate(21.504277, 8.877557)">
                                    <g id="s">
                                        <g id="Group" transform="translate(22.854253, 48.828989) rotate(22.500000) translate(-22.854253, -48.828989) translate(11.854253, 19.495655)">
                                            <path d="M11,0 L22,7.33333333 C2.44444444,39.1111111 24.4444444,44 7.33333333,58.6666667 C14.6666667,41.5555556 0,46.4444444 0,17.1111111" id="Shape" fill="#FCD116"></path>
                                            <path d="M7.33333333,4.88888889 C2.44444444,36.6666667 18.3333333,46.4444444 7.33333333,58.6666667" id="Shape"></path>
                                        </g>
                                        <path d="M39.1111111,0 L53.7777778,0 L39.1111111,80.6666667 L24.4444444,0 L39.1111111,0 L39.1111111,80.6666667" id="Shape" fill="#FCD116"></path>
                                    </g>
                                </g>
                            </g>
                        </g>
                    </g>
                </g>
                <circle id="Oval" fill="#FCD116" cx="85.5555556" cy="85.5555556" r="26.8888889"></circle>
            </g>
            <g id="Group" transform="translate(91.311111, 96.200000)" fill="#000000" sketch:type="MSShapeGroup">
                <g id="right" transform="translate(18.577778, 0.000000)">
                    <path d="M21.0222222,4.15555556 C19.3111111,6.11111111 18.3333333,2.68888889 12.2222222,2.68888889 C6.11111111,2.68888889 5.13333333,6.35555556 4.15555556,5.62222222 C3.17777778,4.88888889 9.28888889,0.488888889 11.2444444,0.244444444 C13.2,2.13717932e-15 18.8222222,1.95555556 21.0222222,4.15555556 M13.9333333,6.35555556 C15.6444444,7.82222222 14.1777778,11 12.4666667,11 C10.7555556,11 7.57777778,8.06666667 9.04444444,6.11111111" id="Shape"></path>
                    <path d="M5.86666667,8.55555556 C6.11111111,5.62222222 8.55555556,5.13333333 12.4666667,5.13333333 C16.3777778,5.13333333 18.0888889,8.06666667 19.5555556,8.8 C17.8444444,8.8 16.3777778,6.35555556 12.4666667,6.35555556 C8.55555556,6.35555556 8.55555556,6.35555556 5.86666667,8.8 M6.6,9.28888889 C7.57777778,7.82222222 8.8,10.7555556 11.4888889,10.7555556 C14.1777778,10.7555556 15.6444444,10.0222222 17.3555556,8.8 C19.0666667,7.57777778 14.9111111,11.7333333 12.2222222,11.7333333 C9.53333333,11.7333333 5.86666667,10.2666667 6.6,9.28888889" id="Shape"></path>
                    <path d="M14.9111111,10.7555556 C19.0052802,9.04444444 16.4857915,6.6 14.9111111,6.11111111 C15.5409833,6.6 18.060472,9.04444444 14.9111111,10.7555556 M1.22222222,25.4222222 C2.68888889,25.4222222 3.17777778,24.9333333 5.13333333,24.9333333 C7.08888889,24.9333333 11.7333333,27.6222222 14.4222222,26.6444444 C8.8,28.8444444 11,27.3777778 1.22222222,27.3777778 L0,27.3777778 M15.4,28.8444444 C14.4222222,27.1333333 14.6666667,27.6222222 12.7111111,24.9333333 C14.6666667,26.4 15.1555556,27.1333333 15.4,28.8444444 M1.22222222,31.2888889 C7.33333333,31.2888889 6.35555556,30.0666667 14.4222222,26.6444444 C8.55555556,27.3777778 7.33333333,29.3333333 1.22222222,29.3333333 L0,29.3333333 M1.22222222,22.2444444 C2.93333333,22.2444444 3.42222222,21.0222222 5.37777778,21.0222222 C7.33333333,21.0222222 10.0222222,21.7555556 11.2444444,22.7333333 C11.4888889,22.9777778 10.5111111,20.7777778 8.55555556,20.5333333 C6.6,20.2888889 7.33333333,17.1111111 5.13333333,16.6222222 C5.13333333,17.6 5.86666667,17.3555556 6.11111111,18.8222222 C6.11111111,20.0444444 3.91111111,20.0444444 3.42222222,18.8222222 C3.91111111,20.7777778 2.44444444,20.7777778 1.22222222,20.7777778" id="Shape"></path>
                </g>
                <g id="right-link" transform="translate(10.511111, 15.644444) scale(-1, 1) translate(-10.511111, -15.644444) ">
                    <g id="right">
                        <path d="M21.0222222,4.15555556 C19.3111111,6.11111111 18.3333333,2.68888889 12.2222222,2.68888889 C6.11111111,2.68888889 5.13333333,6.35555556 4.15555556,5.62222222 C3.17777778,4.88888889 9.28888889,0.488888889 11.2444444,0.244444444 C13.2,2.13717932e-15 18.8222222,1.95555556 21.0222222,4.15555556 M13.9333333,6.35555556 C15.6444444,7.82222222 14.1777778,11 12.4666667,11 C10.7555556,11 7.57777778,8.06666667 9.04444444,6.11111111" id="Shape"></path>
                        <path d="M5.86666667,8.55555556 C6.11111111,5.62222222 8.55555556,5.13333333 12.4666667,5.13333333 C16.3777778,5.13333333 18.0888889,8.06666667 19.5555556,8.8 C17.8444444,8.8 16.3777778,6.35555556 12.4666667,6.35555556 C8.55555556,6.35555556 8.55555556,6.35555556 5.86666667,8.8 M6.6,9.28888889 C7.57777778,7.82222222 8.8,10.7555556 11.4888889,10.7555556 C14.1777778,10.7555556 15.6444444,10.0222222 17.3555556,8.8 C19.0666667,7.57777778 14.9111111,11.7333333 12.2222222,11.7333333 C9.53333333,11.7333333 5.86666667,10.2666667 6.6,9.28888889" id="Shape"></path>
                        <path d="M14.9111111,10.7555556 C19.0052802,9.04444444 16.4857915,6.6 14.9111111,6.11111111 C15.5409833,6.6 18.060472,9.04444444 14.9111111,10.7555556 M1.22222222,25.4222222 C2.68888889,25.4222222 3.17777778,24.9333333 5.13333333,24.9333333 C7.08888889,24.9333333 11.7333333,27.6222222 14.4222222,26.6444444 C8.8,28.8444444 11,27.3777778 1.22222222,27.3777778 L0,27.3777778 M15.4,28.8444444 C14.4222222,27.1333333 14.6666667,27.6222222 12.7111111,24.9333333 C14.6666667,26.4 15.1555556,27.1333333 15.4,28.8444444 M1.22222222,31.2888889 C7.33333333,31.2888889 6.35555556,30.0666667 14.4222222,26.6444444 C8.55555556,27.3777778 7.33333333,29.3333333 1.22222222,29.3333333 L0,29.3333333 M1.22222222,22.2444444 C2.93333333,22.2444444 3.42222222,21.0222222 5.37777778,21.0222222 C7.33333333,21.0222222 10.0222222,21.7555556 11.2444444,22.7333333 C11.4888889,22.9777778 10.5111111,20.7777778 8.55555556,20.5333333 C6.6,20.2888889 7.33333333,17.1111111 5.13333333,16.6222222 C5.13333333,17.6 5.86666667,17.3555556 6.11111111,18.8222222 C6.11111111,20.0444444 3.91111111,20.0444444 3.42222222,18.8222222 C3.91111111,20.7777778 2.44444444,20.7777778 1.22222222,20.7777778" id="Shape"></path>
                    </g>
                </g>
                <path d="M19.8,33.4888889 C18.5777778,33.4888889 15.4,35.7111111 19.8,35.7111111 C24.2,35.7111111 21.0222222,33.4888889 19.8,33.4888889" id="Shape"></path>
            </g>
        </g>
    </g>
</svg>